<svg width="25" height="24" viewBox="0 0 25 24" fill="none" xmlns="http://www.w3.org/2000/svg">
<path d="M24.2305 12.0763C24.2305 5.40597 18.8552 0.00195312 12.2305 0.00195312C5.60122 0.00195312 0.230469 5.40597 0.230469 12.0763C0.230469 18.1014 4.61722 23.0971 10.3555 24.002V15.5673H7.30822V12.077H10.3555V9.41541C10.3555 6.39003 12.1442 4.71924 14.8862 4.71924C16.1995 4.71924 17.5742 4.95469 17.5742 4.95469V7.92573H16.0585C14.5705 7.92573 14.1055 8.85772 14.1055 9.81235V12.0763H17.4332L16.8985 15.5665H14.1055V24.0012C19.8392 23.0964 24.2305 18.1006 24.2305 12.0755V12.0763Z" fill="black"/>
</svg>
