<svg width="138" height="61" viewBox="0 0 138 61" fill="none" xmlns="http://www.w3.org/2000/svg">
<path d="M79.1723 44.4187C83.4763 44.4187 86.9654 40.9296 86.9654 36.6256C86.9654 32.3216 83.4763 28.8325 79.1723 28.8325C74.8682 28.8325 71.3792 32.3216 71.3792 36.6256C71.3792 40.9296 74.8682 44.4187 79.1723 44.4187Z" fill="#667085"/>
<path d="M79.3908 45.8755H78.8081C75.9706 45.8987 73.2336 46.9294 71.0858 48.7838C68.9379 50.6382 67.5189 53.1955 67.082 55.9993C67.082 56.5091 67.2277 57.7472 69.0485 57.7472H88.859C90.6798 57.7472 90.8255 56.6548 90.8255 55.9993C90.5102 53.1959 89.1665 50.6091 87.0544 48.7391C84.9422 46.8691 82.2116 45.8488 79.3908 45.8755Z" fill="#667085"/>
<path d="M68.466 44.4186C68.7573 44.1273 68.5388 43.9088 68.5388 43.9088C67.0788 41.7595 66.2927 39.2238 66.281 36.6255C66.2481 33.9644 67.0645 31.362 68.6117 29.1966C68.6117 29.1773 68.6193 29.1587 68.633 29.1451C68.6466 29.1314 68.6652 29.1237 68.6845 29.1237C68.8702 28.8978 68.973 28.6151 68.9758 28.3226V20.4567C68.9503 20.0787 68.7886 19.7229 68.5207 19.4551C68.2529 19.1872 67.8971 19.0256 67.5192 19H49.4567C49.0685 19.0319 48.7057 19.2054 48.4371 19.4874C48.1685 19.7694 48.013 20.1403 48 20.5295V54.1782H62.2024C63.1253 50.3098 65.3336 46.869 68.466 44.4186ZM56.0844 50.0267C56.07 50.4278 55.9042 50.8084 55.6204 51.0922C55.3367 51.376 54.956 51.5418 54.5549 51.5562H53.0255C52.6244 51.5418 52.2437 51.376 51.96 51.0922C51.6762 50.8084 51.5104 50.4278 51.496 50.0267V48.4972C51.5104 48.0962 51.6762 47.7155 51.96 47.4318C52.2437 47.148 52.6244 46.9822 53.0255 46.9678H54.5549C54.956 46.9822 55.3367 47.148 55.6204 47.4318C55.9042 47.7155 56.07 48.0962 56.0844 48.4972V50.0267ZM56.0844 42.3793C56.07 42.7803 55.9042 43.161 55.6204 43.4448C55.3367 43.7285 54.956 43.8943 54.5549 43.9088H53.0255C52.6244 43.8943 52.2437 43.7285 51.96 43.4448C51.6762 43.161 51.5104 42.7803 51.496 42.3793V40.8498C51.5104 40.4488 51.6762 40.0681 51.96 39.7843C52.2437 39.5006 52.6244 39.3348 53.0255 39.3203H54.5549C54.956 39.3348 55.3367 39.5006 55.6204 39.7843C55.9042 40.0681 56.07 40.4488 56.0844 40.8498V42.3793ZM56.0844 34.7319C56.07 35.1329 55.9042 35.5136 55.6204 35.7973C55.3367 36.0811 54.956 36.2469 54.5549 36.2614H53.0255C52.6244 36.2469 52.2437 36.0811 51.96 35.7973C51.6762 35.5136 51.5104 35.1329 51.496 34.7319V33.2024C51.5104 32.8013 51.6762 32.4207 51.96 32.1369C52.2437 31.8531 52.6244 31.6874 53.0255 31.6729H54.5549C54.956 31.6874 55.3367 31.8531 55.6204 32.1369C55.9042 32.4207 56.07 32.8013 56.0844 33.2024V34.7319ZM56.0844 27.0844C56.07 27.4855 55.9042 27.8661 55.6204 28.1499C55.3367 28.4337 54.956 28.5995 54.5549 28.6139H53.0255C52.6244 28.5995 52.2437 28.4337 51.96 28.1499C51.6762 27.8661 51.5104 27.4855 51.496 27.0844V25.5549C51.5104 25.1539 51.6762 24.7732 51.96 24.4895C52.2437 24.2057 52.6244 24.0399 53.0255 24.0255H54.5549C54.956 24.0399 55.3367 24.2057 55.6204 24.4895C55.9042 24.7732 56.07 25.1539 56.0844 25.5549V27.0844ZM64.7515 42.3793C64.7371 42.7803 64.5713 43.161 64.2875 43.4448C64.0038 43.7285 63.6231 43.8943 63.222 43.9088H61.6925C61.2915 43.8943 60.9108 43.7285 60.6271 43.4448C60.3433 43.161 60.1775 42.7803 60.1631 42.3793V40.8498C60.1775 40.4488 60.3433 40.0681 60.6271 39.7843C60.9108 39.5006 61.2915 39.3348 61.6925 39.3203H63.222C63.6231 39.3348 64.0038 39.5006 64.2875 39.7843C64.5713 40.0681 64.7371 40.4488 64.7515 40.8498V42.3793ZM64.7515 34.7319C64.7371 35.1329 64.5713 35.5136 64.2875 35.7973C64.0038 36.0811 63.6231 36.2469 63.222 36.2614H61.6925C61.2915 36.2469 60.9108 36.0811 60.6271 35.7973C60.3433 35.5136 60.1775 35.1329 60.1631 34.7319V33.2024C60.1775 32.8013 60.3433 32.4207 60.6271 32.1369C60.9108 31.8531 61.2915 31.6874 61.6925 31.6729H63.222C63.6231 31.6874 64.0038 31.8531 64.2875 32.1369C64.5713 32.4207 64.7371 32.8013 64.7515 33.2024V34.7319ZM64.7515 27.0844C64.7371 27.4855 64.5713 27.8661 64.2875 28.1499C64.0038 28.4337 63.6231 28.5995 63.222 28.6139H61.6925C61.2915 28.5995 60.9108 28.4337 60.6271 28.1499C60.3433 27.8661 60.1775 27.4855 60.1631 27.0844V25.5549C60.1775 25.1539 60.3433 24.7732 60.6271 24.4895C60.9108 24.2057 61.2915 24.0399 61.6925 24.0255H63.222C63.6231 24.0399 64.0038 24.2057 64.2875 24.4895C64.5713 24.7732 64.7371 25.1539 64.7515 25.5549V27.0844Z" fill="#667085"/>
<rect x="12.1045" y="4.75586" width="14" height="14" rx="7" fill="white"/>
<rect x="12.1045" y="4.75586" width="14" height="14" rx="7" stroke="#D0D5DD"/>
</svg>
