<svg width="138" height="61" viewBox="0 0 138 61" fill="none" xmlns="http://www.w3.org/2000/svg">
<path d="M68.8538 38.2614C74.1732 38.2614 78.4845 33.9502 78.4845 28.6307C78.4845 23.3113 74.1732 19 68.8538 19C63.5343 19 59.223 23.3113 59.223 28.6307C59.223 33.9502 63.5343 38.2614 68.8538 38.2614ZM59.825 50.9018C59.825 51.9025 60.63 52.7075 61.6307 52.7075C62.6314 52.7075 63.4365 51.9025 63.4365 50.9018C63.4365 49.9011 62.6314 49.096 61.6307 49.096C60.63 49.096 59.825 49.9011 59.825 50.9018ZM76.0768 40.7143V44.401C78.8231 44.9578 80.8922 47.3956 80.8922 50.2998V53.4374C80.8922 54.0092 80.4859 54.5058 79.9216 54.6186L77.4988 55.1002C77.1753 55.1679 76.8593 54.9572 76.7916 54.6261L76.5583 53.4449C76.4906 53.1213 76.7013 52.7978 77.0323 52.7376L78.4845 52.4442V50.2998C78.4845 45.5748 71.2614 45.4017 71.2614 50.4428V52.4517L72.7136 52.7451C73.0371 52.8129 73.2478 53.1289 73.1876 53.4524L72.9543 54.6337C72.8866 54.9572 72.5706 55.1679 72.2471 55.1077L69.8996 54.7917C69.3052 54.7089 68.8613 54.2048 68.8613 53.5954V50.2998C68.8613 47.3956 70.9304 44.9653 73.6766 44.401V41.0002C73.5111 41.0528 73.3456 41.0829 73.1801 41.1431C71.8257 41.6171 70.3736 41.8805 68.8613 41.8805C67.349 41.8805 65.8968 41.6171 64.5425 41.1431C63.9857 40.9475 63.4214 40.8271 62.8421 40.7519V46.8915C64.5801 47.4106 65.8517 49.0057 65.8517 50.9093C65.8517 53.2342 63.9632 55.1227 61.6382 55.1227C59.3133 55.1227 57.4248 53.2342 57.4248 50.9093C57.4248 49.0057 58.6964 47.4106 60.4344 46.8915V40.8422C55.6491 41.6472 52 45.7704 52 50.7814V54.1521C52 56.0106 53.5123 57.5229 55.3708 57.5229H82.3368C84.1952 57.5229 85.7075 56.0106 85.7075 54.1521V50.7814C85.7075 45.3641 81.4339 40.9776 76.0768 40.7143Z" fill="#667085"/>
<rect x="12.1045" y="4.75586" width="14" height="14" rx="7" fill="#017B3B"/>
<rect x="12.1045" y="4.75586" width="14" height="14" rx="7" stroke="#D0D5DD"/>
</svg>
