<svg width="138" height="61" viewBox="0 0 138 61" fill="none" xmlns="http://www.w3.org/2000/svg">
<rect x="12.1045" y="4.75586" width="14" height="14" rx="7" fill="white"/>
<rect x="12.1045" y="4.75586" width="14" height="14" rx="7" stroke="#D0D5DD"/>
<path d="M69.3221 19C65.8033 19 62.9507 21.8526 62.9507 25.3714C62.9507 28.8902 65.8033 31.7428 69.3221 31.7428C72.8409 31.7428 75.6935 28.8902 75.6935 25.3714C75.6935 21.8526 72.8409 19 69.3221 19Z" fill="#667085"/>
<path d="M83.672 22.1826C81.0303 22.1826 78.8887 24.3242 78.8887 26.9659C78.8887 29.6077 81.0303 31.7493 83.672 31.7493C86.3137 31.7493 88.4553 29.6077 88.4553 26.9659C88.4553 24.3242 86.3137 22.1826 83.672 22.1826Z" fill="#667085"/>
<path d="M54.972 22.1826C52.3303 22.1826 50.1887 24.3242 50.1887 26.9659C50.1887 29.6077 52.3303 31.7493 54.972 31.7493C57.6138 31.7493 59.7554 29.6077 59.7554 26.9659C59.7554 24.3242 57.6138 22.1826 54.972 22.1826Z" fill="#667085"/>
<path d="M59.7557 38.1053C59.7668 36.3536 61.1902 34.937 62.9445 34.937H75.7C77.4612 34.937 78.8889 36.3647 78.8889 38.1259V47.6935C78.8889 48.0236 78.8723 48.3501 78.8395 48.6715C78.7703 49.3543 78.629 50.0157 78.424 50.6483C77.179 54.4858 73.5746 57.2602 69.3223 57.2602C65.0294 57.2602 61.3969 54.4326 60.1857 50.5383C59.9062 49.6397 59.7556 48.6843 59.7556 47.6935V38.1259C59.7556 38.119 59.7556 38.1121 59.7557 38.1053Z" fill="#667085"/>
<path d="M56.5666 38.1259C56.5666 36.9642 56.8772 35.8751 57.4199 34.937H50.1889C48.4277 34.937 47 36.3647 47 38.1259V46.0991C47 50.502 50.5693 54.0713 54.9722 54.0713C56.0281 54.0713 57.0361 53.8659 57.9584 53.4931C57.0686 51.7533 56.5666 49.7819 56.5666 47.6935V38.1259Z" fill="#667085"/>
<path d="M82.0777 38.1259V47.6935C82.0777 49.7819 81.5757 51.7533 80.686 53.4931C81.6083 53.8659 82.6163 54.0713 83.6721 54.0713C88.075 54.0713 91.6443 50.502 91.6443 46.0991V38.1259C91.6443 36.3647 90.2166 34.937 88.4554 34.937H81.2243C81.7671 35.8751 82.0777 36.9642 82.0777 38.1259Z" fill="#667085"/>
</svg>
