<svg width="1036" height="1120" viewBox="0 0 1036 1120" fill="none" xmlns="http://www.w3.org/2000/svg">
<path d="M1034.52 421.097C998.73 279.513 911.624 163.87 797.801 89.5526M918.384 921.456C843.218 1010.01 739.95 1075.99 618.11 1104.12C566.546 1116.02 515 1120.38 464.628 1117.9M512.44 587.75C508.831 590.258 504.694 592.134 500.151 593.183C480.998 597.605 461.883 585.649 457.458 566.479C453.032 547.309 464.971 528.184 484.124 523.762C494.744 521.31 505.352 523.893 513.45 529.949M545.701 493.728C526.227 477.613 499.742 470.434 473.226 476.556C428.024 486.991 399.848 532.126 410.293 577.368C414.881 597.243 426.16 613.832 441.198 625.301C460.39 639.94 485.705 646.24 511.049 640.389C518.963 638.562 526.354 635.671 533.108 631.903M547.687 653.115C538.318 658.617 527.965 662.807 516.819 665.38C483.743 673.016 450.704 664.795 425.657 645.69C406.031 630.721 391.312 609.071 385.323 583.132C376.985 547.016 387.506 510.951 410.436 485.272M563.792 673.026C551.26 680.993 537.186 687.002 521.895 690.532C481.302 699.904 440.754 689.813 410.014 666.367C385.928 647.995 367.863 621.425 360.514 589.591C351.779 551.756 359.908 513.967 379.978 484.112M580.551 691.368C564.991 701.736 547.332 709.52 528.038 713.975C479.927 725.082 431.871 713.123 395.438 685.334C366.892 663.561 345.482 632.07 336.771 594.341C327.606 554.645 334.105 514.991 352.22 481.865M600.139 710.754C580.85 724.463 558.614 734.702 534.128 740.355C477.856 753.346 421.647 739.359 379.034 706.856C345.645 681.389 320.602 644.555 310.414 600.426C300.62 558.004 306.12 515.623 323.303 479.07M620.607 729.324C597.436 746.79 570.312 759.787 540.219 766.735C475.785 781.61 411.424 765.594 362.629 728.377C324.398 699.217 295.723 657.041 284.058 606.511C273.708 561.68 278.274 516.891 294.506 477.35M642.907 748.095C615.543 769.914 582.999 786.106 546.63 794.503C473.604 811.362 400.662 793.21 345.361 751.031C302.033 717.982 269.535 670.183 256.314 612.917C245.928 567.93 248.795 522.98 262.358 482.163M665.831 766.161C634.205 792.692 596.011 812.35 553.04 822.271C471.424 841.114 389.9 820.827 328.094 773.685C279.667 736.748 243.346 683.326 228.57 619.322C218.969 577.735 219.501 536.177 228.549 497.237M690.452 784.455C654.307 816.278 609.976 839.837 559.772 851.428C469.134 872.353 378.6 849.824 309.962 797.471C256.184 756.453 215.848 697.125 199.438 626.047C191.787 592.904 189.931 559.776 193.207 527.728C193.171 527.768 193.136 527.808 193.101 527.848M715.544 802.128C674.857 839.558 624.208 867.262 566.503 880.585C466.845 903.592 367.3 878.821 291.831 821.258C232.7 776.157 188.35 710.925 170.307 632.773C165.672 612.695 162.971 592.622 162.082 572.751M742.258 820.038C696.807 863.649 639.373 895.934 573.555 911.13C464.447 936.319 355.462 909.199 272.837 846.177C208.099 796.799 159.543 725.382 139.789 639.818C138.886 635.908 138.05 631.998 137.281 628.09M778.041 842.791C726.319 894.982 659.717 933.648 582.851 951.394C537.037 961.971 491.244 964.27 447.034 959.27M814.381 864.655C756.417 925.873 680.421 971.278 592.146 991.658C547.857 1001.88 503.585 1005.09 460.492 1002.01M848.658 884.271C784.917 954.262 699.994 1006.24 600.801 1029.15C556.142 1039.46 511.499 1043.2 467.881 1041.01M884.621 903.89C814.933 983.34 720.578 1042.44 609.776 1068.02C562.772 1078.87 515.784 1083 469.817 1081.05M568.658 479.915C542.831 454.766 505.168 442.858 467.456 451.564C447.202 456.24 429.567 466.255 415.692 479.78M591.792 469.454C568.477 443.472 535.568 427.157 500.101 424.913M617.781 460.191C591.784 426.956 553.324 405.068 511.128 399.986M645.531 452.261C616.537 410.361 571.366 381.978 521.089 374.037M673.595 445.728C641.734 394.377 589.377 358.96 530.409 348.16M703.306 440.052C668.701 378.209 608.602 334.953 540.173 321.02M733.095 435.377C696.259 363.063 628.927 311.794 551.427 294.288M764.398 431.362C725.759 348.306 651.571 288.586 565.188 266.811M795.695 428.12C755.761 334.747 675.588 266.661 581.123 240.093M828.455 425.437C787.671 321.88 702.276 245.251 600.363 213.123M871.581 422.866C830.413 307.147 739.959 219.832 630.1 179.611M914.633 421.253C873.865 295.176 780.639 198.134 665.321 149.122M954.652 420.523C914.918 286.785 821.345 181.872 703.527 124.296M996.092 420.491C958.083 281.251 866.593 169.771 749.188 103.292M475.968 425.571C471.095 426.145 466.204 426.992 461.313 428.121C432.146 434.855 407.405 450.609 389.352 471.76M471.945 400.151C466.72 400.823 461.479 401.76 456.237 402.97C416.946 412.041 384.432 434.923 362.63 465.312M469.174 373.21C462.845 374.001 456.496 375.124 450.147 376.59C400.149 388.133 359.532 418.796 334.226 459.084M466.9 346.211C459.304 347.122 451.681 348.45 444.056 350.21C383.702 364.144 335.286 402.411 306.763 452.271M464.696 317.773C455.702 318.808 446.675 320.357 437.646 322.442C370.695 337.898 316.708 379.774 284.135 434.531M462.526 289.336C452.124 290.491 441.68 292.262 431.235 294.673C357.436 311.711 297.73 357.471 261.178 417.435M460.189 259.487C448.329 260.767 436.417 262.766 424.503 265.517C343.229 284.28 277.346 334.412 236.669 400.189M457.735 229.652C444.454 231.056 431.114 233.28 417.772 236.36C328.715 256.92 256.466 311.735 211.704 383.693M454.998 198.416C440.285 199.949 425.504 202.402 410.72 205.815C313.159 228.339 234.022 288.41 185.022 367.262M451.084 157.273C434.583 158.979 418.005 161.723 401.424 165.551C292.061 190.799 203.475 258.395 148.962 347.043M446.782 116.171C428.621 118.052 410.376 121.074 392.129 125.287C270.223 153.431 171.735 229.302 111.812 328.633M442.401 77.9422C422.819 79.9896 403.148 83.2574 383.474 87.7995C249.152 118.81 140.995 203.15 76.1708 313.323M437.456 38.3406C416.533 40.5623 395.518 44.0713 374.499 48.9239C226.454 83.1028 107.77 177.121 38.0549 299.568M432.485 1.60965C410.443 3.99415 388.305 7.71355 366.165 12.8251C204.505 50.1472 75.5383 154.101 1.52983 289.019M89.7277 947.519C109.369 967.827 130.474 986.574 152.826 1003.62C197.874 1037.98 247.987 1065.45 301.388 1084.9M91.0248 893.619C116.13 923.66 144.431 950.647 175.274 974.172C213.682 1003.47 256.034 1027.39 301.064 1045.16M95.1711 833.299C124.211 875.273 159.524 912.005 199.449 942.457C230.651 966.256 264.67 986.219 300.712 1001.85M95.1711 833.299L95.1287 833.756M95.1711 833.299C95.1569 833.451 95.1428 833.604 95.1287 833.756M94.9817 835.353C95.0303 834.821 95.0793 834.288 95.1287 833.756M102.52 772.084C132.755 827.361 174.025 874.702 222.76 911.874C246.937 930.314 272.95 946.252 300.366 959.415M115.646 702.106C142.962 774.029 189.489 834.551 247.798 879.026C264.306 891.617 281.759 902.922 299.987 912.835" stroke="#E3ECEC" stroke-width="2"/>
</svg>
