<svg width="1440" height="960" viewBox="0 0 1440 960" fill="none" xmlns="http://www.w3.org/2000/svg">
<mask id="path-1-inside-1_415_2921" fill="white">
<path d="M0 0H68.5714V68.5714H0V0Z"/>
<path d="M0 137.143H68.5714V205.714H0V137.143Z"/>
<path d="M0 274.286H68.5714V342.857H0V274.286Z"/>
<path d="M0 411.429H68.5714V480H0V411.429Z"/>
<path d="M0 548.571H68.5714V617.143H0V548.571Z"/>
<path d="M0 685.714H68.5714V754.286H0V685.714Z"/>
<path d="M0 822.857H68.5714V891.429H0V822.857Z"/>
<path d="M137.143 0H205.714V68.5714H137.143V0Z"/>
<path d="M137.143 137.143H205.714V205.714H137.143V137.143Z"/>
<path d="M137.143 274.286H205.714V342.857H137.143V274.286Z"/>
<path d="M137.143 411.429H205.714V480H137.143V411.429Z"/>
<path d="M137.143 548.571H205.714V617.143H137.143V548.571Z"/>
<path d="M137.143 685.714H205.714V754.286H137.143V685.714Z"/>
<path d="M137.143 822.857H205.714V891.429H137.143V822.857Z"/>
<path d="M274.286 0H342.857V68.5714H274.286V0Z"/>
<path d="M274.286 137.143H342.857V205.714H274.286V137.143Z"/>
<path d="M274.286 274.286H342.857V342.857H274.286V274.286Z"/>
<path d="M274.286 411.429H342.857V480H274.286V411.429Z"/>
<path d="M274.286 548.571H342.857V617.143H274.286V548.571Z"/>
<path d="M274.286 685.714H342.857V754.286H274.286V685.714Z"/>
<path d="M274.286 822.857H342.857V891.429H274.286V822.857Z"/>
<path d="M411.429 0H480V68.5714H411.429V0Z"/>
<path d="M411.429 137.143H480V205.714H411.429V137.143Z"/>
<path d="M411.429 274.286H480V342.857H411.429V274.286Z"/>
<path d="M411.429 411.429H480V480H411.429V411.429Z"/>
<path d="M411.429 548.571H480V617.143H411.429V548.571Z"/>
<path d="M411.429 685.714H480V754.286H411.429V685.714Z"/>
<path d="M411.429 822.857H480V891.429H411.429V822.857Z"/>
<path d="M548.571 0H617.143V68.5714H548.571V0Z"/>
<path d="M548.571 137.143H617.143V205.714H548.571V137.143Z"/>
<path d="M548.571 274.286H617.143V342.857H548.571V274.286Z"/>
<path d="M548.571 411.429H617.143V480H548.571V411.429Z"/>
<path d="M548.571 548.571H617.143V617.143H548.571V548.571Z"/>
<path d="M548.571 685.714H617.143V754.286H548.571V685.714Z"/>
<path d="M548.571 822.857H617.143V891.429H548.571V822.857Z"/>
<path d="M685.714 0H754.286V68.5714H685.714V0Z"/>
<path d="M685.714 137.143H754.286V205.714H685.714V137.143Z"/>
<path d="M685.714 274.286H754.286V342.857H685.714V274.286Z"/>
<path d="M685.714 411.429H754.286V480H685.714V411.429Z"/>
<path d="M685.714 548.571H754.286V617.143H685.714V548.571Z"/>
<path d="M685.714 685.714H754.286V754.286H685.714V685.714Z"/>
<path d="M685.714 822.857H754.286V891.429H685.714V822.857Z"/>
<path d="M822.857 0H891.429V68.5714H822.857V0Z"/>
<path d="M822.857 137.143H891.429V205.714H822.857V137.143Z"/>
<path d="M822.857 274.286H891.429V342.857H822.857V274.286Z"/>
<path d="M822.857 411.429H891.429V480H822.857V411.429Z"/>
<path d="M822.857 548.571H891.429V617.143H822.857V548.571Z"/>
<path d="M822.857 685.714H891.429V754.286H822.857V685.714Z"/>
<path d="M822.857 822.857H891.429V891.429H822.857V822.857Z"/>
<path d="M960 0H1028.57V68.5714H960V0Z"/>
<path d="M960 137.143H1028.57V205.714H960V137.143Z"/>
<path d="M960 274.286H1028.57V342.857H960V274.286Z"/>
<path d="M960 411.429H1028.57V480H960V411.429Z"/>
<path d="M960 548.571H1028.57V617.143H960V548.571Z"/>
<path d="M960 685.714H1028.57V754.286H960V685.714Z"/>
<path d="M960 822.857H1028.57V891.429H960V822.857Z"/>
<path d="M1097.14 0H1165.71V68.5714H1097.14V0Z"/>
<path d="M1097.14 137.143H1165.71V205.714H1097.14V137.143Z"/>
<path d="M1097.14 274.286H1165.71V342.857H1097.14V274.286Z"/>
<path d="M1097.14 411.429H1165.71V480H1097.14V411.429Z"/>
<path d="M1097.14 548.571H1165.71V617.143H1097.14V548.571Z"/>
<path d="M1097.14 685.714H1165.71V754.286H1097.14V685.714Z"/>
<path d="M1097.14 822.857H1165.71V891.429H1097.14V822.857Z"/>
<path d="M1234.29 0H1302.86V68.5714H1234.29V0Z"/>
<path d="M1234.29 137.143H1302.86V205.714H1234.29V137.143Z"/>
<path d="M1234.29 274.286H1302.86V342.857H1234.29V274.286Z"/>
<path d="M1234.29 411.429H1302.86V480H1234.29V411.429Z"/>
<path d="M1234.29 548.571H1302.86V617.143H1234.29V548.571Z"/>
<path d="M1234.29 685.714H1302.86V754.286H1234.29V685.714Z"/>
<path d="M1234.29 822.857H1302.86V891.429H1234.29V822.857Z"/>
<path d="M1371.43 0H1440V68.5714H1371.43V0Z"/>
<path d="M1371.43 137.143H1440V205.714H1371.43V137.143Z"/>
<path d="M1371.43 274.286H1440V342.857H1371.43V274.286Z"/>
<path d="M1371.43 411.429H1440V480H1371.43V411.429Z"/>
<path d="M1371.43 548.571H1440V617.143H1371.43V548.571Z"/>
<path d="M1371.43 685.714H1440V754.286H1371.43V685.714Z"/>
<path d="M1371.43 822.857H1440V891.429H1371.43V822.857Z"/>
<path d="M68.5714 0H137.143V68.5714H68.5714V0Z"/>
<path d="M68.5714 137.143H137.143V205.714H68.5714V137.143Z"/>
<path d="M68.5714 274.286H137.143V342.857H68.5714V274.286Z"/>
<path d="M68.5714 411.429H137.143V480H68.5714V411.429Z"/>
<path d="M68.5714 548.571H137.143V617.143H68.5714V548.571Z"/>
<path d="M68.5714 685.714H137.143V754.286H68.5714V685.714Z"/>
<path d="M68.5714 822.857H137.143V891.429H68.5714V822.857Z"/>
<path d="M205.714 0H274.286V68.5714H205.714V0Z"/>
<path d="M205.714 137.143H274.286V205.714H205.714V137.143Z"/>
<path d="M205.714 274.286H274.286V342.857H205.714V274.286Z"/>
<path d="M205.714 411.429H274.286V480H205.714V411.429Z"/>
<path d="M205.714 548.571H274.286V617.143H205.714V548.571Z"/>
<path d="M205.714 685.714H274.286V754.286H205.714V685.714Z"/>
<path d="M205.714 822.857H274.286V891.429H205.714V822.857Z"/>
<path d="M342.857 0H411.429V68.5714H342.857V0Z"/>
<path d="M342.857 137.143H411.429V205.714H342.857V137.143Z"/>
<path d="M342.857 274.286H411.429V342.857H342.857V274.286Z"/>
<path d="M342.857 411.429H411.429V480H342.857V411.429Z"/>
<path d="M342.857 548.571H411.429V617.143H342.857V548.571Z"/>
<path d="M342.857 685.714H411.429V754.286H342.857V685.714Z"/>
<path d="M342.857 822.857H411.429V891.429H342.857V822.857Z"/>
<path d="M480 0H548.571V68.5714H480V0Z"/>
<path d="M480 137.143H548.571V205.714H480V137.143Z"/>
<path d="M480 274.286H548.571V342.857H480V274.286Z"/>
<path d="M480 411.429H548.571V480H480V411.429Z"/>
<path d="M480 548.571H548.571V617.143H480V548.571Z"/>
<path d="M480 685.714H548.571V754.286H480V685.714Z"/>
<path d="M480 822.857H548.571V891.429H480V822.857Z"/>
<path d="M617.143 0H685.714V68.5714H617.143V0Z"/>
<path d="M617.143 137.143H685.714V205.714H617.143V137.143Z"/>
<path d="M617.143 274.286H685.714V342.857H617.143V274.286Z"/>
<path d="M617.143 411.429H685.714V480H617.143V411.429Z"/>
<path d="M617.143 548.571H685.714V617.143H617.143V548.571Z"/>
<path d="M617.143 685.714H685.714V754.286H617.143V685.714Z"/>
<path d="M617.143 822.857H685.714V891.429H617.143V822.857Z"/>
<path d="M754.286 0H822.857V68.5714H754.286V0Z"/>
<path d="M754.286 137.143H822.857V205.714H754.286V137.143Z"/>
<path d="M754.286 274.286H822.857V342.857H754.286V274.286Z"/>
<path d="M754.286 411.429H822.857V480H754.286V411.429Z"/>
<path d="M754.286 548.571H822.857V617.143H754.286V548.571Z"/>
<path d="M754.286 685.714H822.857V754.286H754.286V685.714Z"/>
<path d="M754.286 822.857H822.857V891.429H754.286V822.857Z"/>
<path d="M891.429 0H960V68.5714H891.429V0Z"/>
<path d="M891.429 137.143H960V205.714H891.429V137.143Z"/>
<path d="M891.429 274.286H960V342.857H891.429V274.286Z"/>
<path d="M891.429 411.429H960V480H891.429V411.429Z"/>
<path d="M891.429 548.571H960V617.143H891.429V548.571Z"/>
<path d="M891.429 685.714H960V754.286H891.429V685.714Z"/>
<path d="M891.429 822.857H960V891.429H891.429V822.857Z"/>
<path d="M1028.57 0H1097.14V68.5714H1028.57V0Z"/>
<path d="M1028.57 137.143H1097.14V205.714H1028.57V137.143Z"/>
<path d="M1028.57 274.286H1097.14V342.857H1028.57V274.286Z"/>
<path d="M1028.57 411.429H1097.14V480H1028.57V411.429Z"/>
<path d="M1028.57 548.571H1097.14V617.143H1028.57V548.571Z"/>
<path d="M1028.57 685.714H1097.14V754.286H1028.57V685.714Z"/>
<path d="M1028.57 822.857H1097.14V891.429H1028.57V822.857Z"/>
<path d="M1165.71 0H1234.29V68.5714H1165.71V0Z"/>
<path d="M1165.71 137.143H1234.29V205.714H1165.71V137.143Z"/>
<path d="M1165.71 274.286H1234.29V342.857H1165.71V274.286Z"/>
<path d="M1165.71 411.429H1234.29V480H1165.71V411.429Z"/>
<path d="M1165.71 548.571H1234.29V617.143H1165.71V548.571Z"/>
<path d="M1165.71 685.714H1234.29V754.286H1165.71V685.714Z"/>
<path d="M1165.71 822.857H1234.29V891.429H1165.71V822.857Z"/>
<path d="M1302.86 0H1371.43V68.5714H1302.86V0Z"/>
<path d="M1302.86 137.143H1371.43V205.714H1302.86V137.143Z"/>
<path d="M1302.86 274.286H1371.43V342.857H1302.86V274.286Z"/>
<path d="M1302.86 411.429H1371.43V480H1302.86V411.429Z"/>
<path d="M1302.86 548.571H1371.43V617.143H1302.86V548.571Z"/>
<path d="M1302.86 685.714H1371.43V754.286H1302.86V685.714Z"/>
<path d="M1302.86 822.857H1371.43V891.429H1302.86V822.857Z"/>
<path d="M68.5714 68.5714H137.143V137.143H68.5714V68.5714Z"/>
<path d="M68.5714 205.714H137.143V274.286H68.5714V205.714Z"/>
<path d="M68.5714 342.857H137.143V411.429H68.5714V342.857Z"/>
<path d="M68.5714 480H137.143V548.571H68.5714V480Z"/>
<path d="M68.5714 617.143H137.143V685.714H68.5714V617.143Z"/>
<path d="M68.5714 754.286H137.143V822.857H68.5714V754.286Z"/>
<path d="M68.5714 891.429H137.143V960H68.5714V891.429Z"/>
<path d="M205.714 68.5714H274.286V137.143H205.714V68.5714Z"/>
<path d="M205.714 205.714H274.286V274.286H205.714V205.714Z"/>
<path d="M205.714 342.857H274.286V411.429H205.714V342.857Z"/>
<path d="M205.714 480H274.286V548.571H205.714V480Z"/>
<path d="M205.714 617.143H274.286V685.714H205.714V617.143Z"/>
<path d="M205.714 754.286H274.286V822.857H205.714V754.286Z"/>
<path d="M205.714 891.429H274.286V960H205.714V891.429Z"/>
<path d="M342.857 68.5714H411.429V137.143H342.857V68.5714Z"/>
<path d="M342.857 205.714H411.429V274.286H342.857V205.714Z"/>
<path d="M342.857 342.857H411.429V411.429H342.857V342.857Z"/>
<path d="M342.857 480H411.429V548.571H342.857V480Z"/>
<path d="M342.857 617.143H411.429V685.714H342.857V617.143Z"/>
<path d="M342.857 754.286H411.429V822.857H342.857V754.286Z"/>
<path d="M342.857 891.429H411.429V960H342.857V891.429Z"/>
<path d="M480 68.5714H548.571V137.143H480V68.5714Z"/>
<path d="M480 205.714H548.571V274.286H480V205.714Z"/>
<path d="M480 342.857H548.571V411.429H480V342.857Z"/>
<path d="M480 480H548.571V548.571H480V480Z"/>
<path d="M480 617.143H548.571V685.714H480V617.143Z"/>
<path d="M480 754.286H548.571V822.857H480V754.286Z"/>
<path d="M480 891.429H548.571V960H480V891.429Z"/>
<path d="M617.143 68.5714H685.714V137.143H617.143V68.5714Z"/>
<path d="M617.143 205.714H685.714V274.286H617.143V205.714Z"/>
<path d="M617.143 342.857H685.714V411.429H617.143V342.857Z"/>
<path d="M617.143 480H685.714V548.571H617.143V480Z"/>
<path d="M617.143 617.143H685.714V685.714H617.143V617.143Z"/>
<path d="M617.143 754.286H685.714V822.857H617.143V754.286Z"/>
<path d="M617.143 891.429H685.714V960H617.143V891.429Z"/>
<path d="M754.286 68.5714H822.857V137.143H754.286V68.5714Z"/>
<path d="M754.286 205.714H822.857V274.286H754.286V205.714Z"/>
<path d="M754.286 342.857H822.857V411.429H754.286V342.857Z"/>
<path d="M754.286 480H822.857V548.571H754.286V480Z"/>
<path d="M754.286 617.143H822.857V685.714H754.286V617.143Z"/>
<path d="M754.286 754.286H822.857V822.857H754.286V754.286Z"/>
<path d="M754.286 891.429H822.857V960H754.286V891.429Z"/>
<path d="M891.429 68.5714H960V137.143H891.429V68.5714Z"/>
<path d="M891.429 205.714H960V274.286H891.429V205.714Z"/>
<path d="M891.429 342.857H960V411.429H891.429V342.857Z"/>
<path d="M891.429 480H960V548.571H891.429V480Z"/>
<path d="M891.429 617.143H960V685.714H891.429V617.143Z"/>
<path d="M891.429 754.286H960V822.857H891.429V754.286Z"/>
<path d="M891.429 891.429H960V960H891.429V891.429Z"/>
<path d="M1028.57 68.5714H1097.14V137.143H1028.57V68.5714Z"/>
<path d="M1028.57 205.714H1097.14V274.286H1028.57V205.714Z"/>
<path d="M1028.57 342.857H1097.14V411.429H1028.57V342.857Z"/>
<path d="M1028.57 480H1097.14V548.571H1028.57V480Z"/>
<path d="M1028.57 617.143H1097.14V685.714H1028.57V617.143Z"/>
<path d="M1028.57 754.286H1097.14V822.857H1028.57V754.286Z"/>
<path d="M1028.57 891.429H1097.14V960H1028.57V891.429Z"/>
<path d="M1165.71 68.5714H1234.29V137.143H1165.71V68.5714Z"/>
<path d="M1165.71 205.714H1234.29V274.286H1165.71V205.714Z"/>
<path d="M1165.71 342.857H1234.29V411.429H1165.71V342.857Z"/>
<path d="M1165.71 480H1234.29V548.571H1165.71V480Z"/>
<path d="M1165.71 617.143H1234.29V685.714H1165.71V617.143Z"/>
<path d="M1165.71 754.286H1234.29V822.857H1165.71V754.286Z"/>
<path d="M1165.71 891.429H1234.29V960H1165.71V891.429Z"/>
<path d="M1302.86 68.5714H1371.43V137.143H1302.86V68.5714Z"/>
<path d="M1302.86 205.714H1371.43V274.286H1302.86V205.714Z"/>
<path d="M1302.86 342.857H1371.43V411.429H1302.86V342.857Z"/>
<path d="M1302.86 480H1371.43V548.571H1302.86V480Z"/>
<path d="M1302.86 617.143H1371.43V685.714H1302.86V617.143Z"/>
<path d="M1302.86 754.286H1371.43V822.857H1302.86V754.286Z"/>
<path d="M1302.86 891.429H1371.43V960H1302.86V891.429Z"/>
<path d="M0 68.5714H68.5714V137.143H0V68.5714Z"/>
<path d="M0 205.714H68.5714V274.286H0V205.714Z"/>
<path d="M0 342.857H68.5714V411.429H0V342.857Z"/>
<path d="M0 480H68.5714V548.571H0V480Z"/>
<path d="M0 617.143H68.5714V685.714H0V617.143Z"/>
<path d="M0 754.286H68.5714V822.857H0V754.286Z"/>
<path d="M0 891.429H68.5714V960H0V891.429Z"/>
<path d="M137.143 68.5714H205.714V137.143H137.143V68.5714Z"/>
<path d="M137.143 205.714H205.714V274.286H137.143V205.714Z"/>
<path d="M137.143 342.857H205.714V411.429H137.143V342.857Z"/>
<path d="M137.143 480H205.714V548.571H137.143V480Z"/>
<path d="M137.143 617.143H205.714V685.714H137.143V617.143Z"/>
<path d="M137.143 754.286H205.714V822.857H137.143V754.286Z"/>
<path d="M137.143 891.429H205.714V960H137.143V891.429Z"/>
<path d="M274.286 68.5714H342.857V137.143H274.286V68.5714Z"/>
<path d="M274.286 205.714H342.857V274.286H274.286V205.714Z"/>
<path d="M274.286 342.857H342.857V411.429H274.286V342.857Z"/>
<path d="M274.286 480H342.857V548.571H274.286V480Z"/>
<path d="M274.286 617.143H342.857V685.714H274.286V617.143Z"/>
<path d="M274.286 754.286H342.857V822.857H274.286V754.286Z"/>
<path d="M274.286 891.429H342.857V960H274.286V891.429Z"/>
<path d="M411.429 68.5714H480V137.143H411.429V68.5714Z"/>
<path d="M411.429 205.714H480V274.286H411.429V205.714Z"/>
<path d="M411.429 342.857H480V411.429H411.429V342.857Z"/>
<path d="M411.429 480H480V548.571H411.429V480Z"/>
<path d="M411.429 617.143H480V685.714H411.429V617.143Z"/>
<path d="M411.429 754.286H480V822.857H411.429V754.286Z"/>
<path d="M411.429 891.429H480V960H411.429V891.429Z"/>
<path d="M548.571 68.5714H617.143V137.143H548.571V68.5714Z"/>
<path d="M548.571 205.714H617.143V274.286H548.571V205.714Z"/>
<path d="M548.571 342.857H617.143V411.429H548.571V342.857Z"/>
<path d="M548.571 480H617.143V548.571H548.571V480Z"/>
<path d="M548.571 617.143H617.143V685.714H548.571V617.143Z"/>
<path d="M548.571 754.286H617.143V822.857H548.571V754.286Z"/>
<path d="M548.571 891.429H617.143V960H548.571V891.429Z"/>
<path d="M685.714 68.5714H754.286V137.143H685.714V68.5714Z"/>
<path d="M685.714 205.714H754.286V274.286H685.714V205.714Z"/>
<path d="M685.714 342.857H754.286V411.429H685.714V342.857Z"/>
<path d="M685.714 480H754.286V548.571H685.714V480Z"/>
<path d="M685.714 617.143H754.286V685.714H685.714V617.143Z"/>
<path d="M685.714 754.286H754.286V822.857H685.714V754.286Z"/>
<path d="M685.714 891.429H754.286V960H685.714V891.429Z"/>
<path d="M822.857 68.5714H891.429V137.143H822.857V68.5714Z"/>
<path d="M822.857 205.714H891.429V274.286H822.857V205.714Z"/>
<path d="M822.857 342.857H891.429V411.429H822.857V342.857Z"/>
<path d="M822.857 480H891.429V548.571H822.857V480Z"/>
<path d="M822.857 617.143H891.429V685.714H822.857V617.143Z"/>
<path d="M822.857 754.286H891.429V822.857H822.857V754.286Z"/>
<path d="M822.857 891.429H891.429V960H822.857V891.429Z"/>
<path d="M960 68.5714H1028.57V137.143H960V68.5714Z"/>
<path d="M960 205.714H1028.57V274.286H960V205.714Z"/>
<path d="M960 342.857H1028.57V411.429H960V342.857Z"/>
<path d="M960 480H1028.57V548.571H960V480Z"/>
<path d="M960 617.143H1028.57V685.714H960V617.143Z"/>
<path d="M960 754.286H1028.57V822.857H960V754.286Z"/>
<path d="M960 891.429H1028.57V960H960V891.429Z"/>
<path d="M1097.14 68.5714H1165.71V137.143H1097.14V68.5714Z"/>
<path d="M1097.14 205.714H1165.71V274.286H1097.14V205.714Z"/>
<path d="M1097.14 342.857H1165.71V411.429H1097.14V342.857Z"/>
<path d="M1097.14 480H1165.71V548.571H1097.14V480Z"/>
<path d="M1097.14 617.143H1165.71V685.714H1097.14V617.143Z"/>
<path d="M1097.14 754.286H1165.71V822.857H1097.14V754.286Z"/>
<path d="M1097.14 891.429H1165.71V960H1097.14V891.429Z"/>
<path d="M1234.29 68.5714H1302.86V137.143H1234.29V68.5714Z"/>
<path d="M1234.29 205.714H1302.86V274.286H1234.29V205.714Z"/>
<path d="M1234.29 342.857H1302.86V411.429H1234.29V342.857Z"/>
<path d="M1234.29 480H1302.86V548.571H1234.29V480Z"/>
<path d="M1234.29 617.143H1302.86V685.714H1234.29V617.143Z"/>
<path d="M1234.29 754.286H1302.86V822.857H1234.29V754.286Z"/>
<path d="M1234.29 891.429H1302.86V960H1234.29V891.429Z"/>
<path d="M1371.43 68.5714H1440V137.143H1371.43V68.5714Z"/>
<path d="M1371.43 205.714H1440V274.286H1371.43V205.714Z"/>
<path d="M1371.43 342.857H1440V411.429H1371.43V342.857Z"/>
<path d="M1371.43 480H1440V548.571H1371.43V480Z"/>
<path d="M1371.43 617.143H1440V685.714H1371.43V617.143Z"/>
<path d="M1371.43 754.286H1440V822.857H1371.43V754.286Z"/>
<path d="M1371.43 891.429H1440V960H1371.43V891.429Z"/>
</mask>
<path d="M67.5714 0V68.5714H69.5714V0H67.5714ZM68.5714 67.5714H0V69.5714H68.5714V67.5714ZM0 138.143H68.5714V136.143H0V138.143ZM67.5714 137.143V205.714H69.5714V137.143H67.5714ZM68.5714 204.714H0V206.714H68.5714V204.714ZM0 275.286H68.5714V273.286H0V275.286ZM67.5714 274.286V342.857H69.5714V274.286H67.5714ZM68.5714 341.857H0V343.857H68.5714V341.857ZM0 412.429H68.5714V410.429H0V412.429ZM67.5714 411.429V480H69.5714V411.429H67.5714ZM68.5714 479H0V481H68.5714V479ZM0 549.571H68.5714V547.571H0V549.571ZM67.5714 548.571V617.143H69.5714V548.571H67.5714ZM68.5714 616.143H0V618.143H68.5714V616.143ZM0 686.714H68.5714V684.714H0V686.714ZM67.5714 685.714V754.286H69.5714V685.714H67.5714ZM68.5714 753.286H0V755.286H68.5714V753.286ZM0 823.857H68.5714V821.857H0V823.857ZM67.5714 822.857V891.429H69.5714V822.857H67.5714ZM68.5714 890.429H0V892.429H68.5714V890.429ZM204.714 0V68.5714H206.714V0H204.714ZM205.714 67.5714H137.143V69.5714H205.714V67.5714ZM138.143 68.5714V0H136.143V68.5714H138.143ZM137.143 138.143H205.714V136.143H137.143V138.143ZM204.714 137.143V205.714H206.714V137.143H204.714ZM205.714 204.714H137.143V206.714H205.714V204.714ZM138.143 205.714V137.143H136.143V205.714H138.143ZM137.143 275.286H205.714V273.286H137.143V275.286ZM204.714 274.286V342.857H206.714V274.286H204.714ZM205.714 341.857H137.143V343.857H205.714V341.857ZM138.143 342.857V274.286H136.143V342.857H138.143ZM137.143 412.429H205.714V410.429H137.143V412.429ZM204.714 411.429V480H206.714V411.429H204.714ZM205.714 479H137.143V481H205.714V479ZM138.143 480V411.429H136.143V480H138.143ZM137.143 549.571H205.714V547.571H137.143V549.571ZM204.714 548.571V617.143H206.714V548.571H204.714ZM205.714 616.143H137.143V618.143H205.714V616.143ZM138.143 617.143V548.571H136.143V617.143H138.143ZM137.143 686.714H205.714V684.714H137.143V686.714ZM204.714 685.714V754.286H206.714V685.714H204.714ZM205.714 753.286H137.143V755.286H205.714V753.286ZM138.143 754.286V685.714H136.143V754.286H138.143ZM137.143 823.857H205.714V821.857H137.143V823.857ZM204.714 822.857V891.429H206.714V822.857H204.714ZM205.714 890.429H137.143V892.429H205.714V890.429ZM138.143 891.429V822.857H136.143V891.429H138.143ZM341.857 0V68.5714H343.857V0H341.857ZM342.857 67.5714H274.286V69.5714H342.857V67.5714ZM275.286 68.5714V0H273.286V68.5714H275.286ZM274.286 138.143H342.857V136.143H274.286V138.143ZM341.857 137.143V205.714H343.857V137.143H341.857ZM342.857 204.714H274.286V206.714H342.857V204.714ZM275.286 205.714V137.143H273.286V205.714H275.286ZM274.286 275.286H342.857V273.286H274.286V275.286ZM341.857 274.286V342.857H343.857V274.286H341.857ZM342.857 341.857H274.286V343.857H342.857V341.857ZM275.286 342.857V274.286H273.286V342.857H275.286ZM274.286 412.429H342.857V410.429H274.286V412.429ZM341.857 411.429V480H343.857V411.429H341.857ZM342.857 479H274.286V481H342.857V479ZM275.286 480V411.429H273.286V480H275.286ZM274.286 549.571H342.857V547.571H274.286V549.571ZM341.857 548.571V617.143H343.857V548.571H341.857ZM342.857 616.143H274.286V618.143H342.857V616.143ZM275.286 617.143V548.571H273.286V617.143H275.286ZM274.286 686.714H342.857V684.714H274.286V686.714ZM341.857 685.714V754.286H343.857V685.714H341.857ZM342.857 753.286H274.286V755.286H342.857V753.286ZM275.286 754.286V685.714H273.286V754.286H275.286ZM274.286 823.857H342.857V821.857H274.286V823.857ZM341.857 822.857V891.429H343.857V822.857H341.857ZM342.857 890.429H274.286V892.429H342.857V890.429ZM275.286 891.429V822.857H273.286V891.429H275.286ZM479 0V68.5714H481V0H479ZM480 67.5714H411.429V69.5714H480V67.5714ZM412.429 68.5714V0H410.429V68.5714H412.429ZM411.429 138.143H480V136.143H411.429V138.143ZM479 137.143V205.714H481V137.143H479ZM480 204.714H411.429V206.714H480V204.714ZM412.429 205.714V137.143H410.429V205.714H412.429ZM411.429 275.286H480V273.286H411.429V275.286ZM479 274.286V342.857H481V274.286H479ZM480 341.857H411.429V343.857H480V341.857ZM412.429 342.857V274.286H410.429V342.857H412.429ZM411.429 412.429H480V410.429H411.429V412.429ZM479 411.429V480H481V411.429H479ZM480 479H411.429V481H480V479ZM412.429 480V411.429H410.429V480H412.429ZM411.429 549.571H480V547.571H411.429V549.571ZM479 548.571V617.143H481V548.571H479ZM480 616.143H411.429V618.143H480V616.143ZM412.429 617.143V548.571H410.429V617.143H412.429ZM411.429 686.714H480V684.714H411.429V686.714ZM479 685.714V754.286H481V685.714H479ZM480 753.286H411.429V755.286H480V753.286ZM412.429 754.286V685.714H410.429V754.286H412.429ZM411.429 823.857H480V821.857H411.429V823.857ZM479 822.857V891.429H481V822.857H479ZM480 890.429H411.429V892.429H480V890.429ZM412.429 891.429V822.857H410.429V891.429H412.429ZM616.143 0V68.5714H618.143V0H616.143ZM617.143 67.5714H548.571V69.5714H617.143V67.5714ZM549.571 68.5714V0H547.571V68.5714H549.571ZM548.571 138.143H617.143V136.143H548.571V138.143ZM616.143 137.143V205.714H618.143V137.143H616.143ZM617.143 204.714H548.571V206.714H617.143V204.714ZM549.571 205.714V137.143H547.571V205.714H549.571ZM548.571 275.286H617.143V273.286H548.571V275.286ZM616.143 274.286V342.857H618.143V274.286H616.143ZM617.143 341.857H548.571V343.857H617.143V341.857ZM549.571 342.857V274.286H547.571V342.857H549.571ZM548.571 412.429H617.143V410.429H548.571V412.429ZM616.143 411.429V480H618.143V411.429H616.143ZM617.143 479H548.571V481H617.143V479ZM549.571 480V411.429H547.571V480H549.571ZM548.571 549.571H617.143V547.571H548.571V549.571ZM616.143 548.571V617.143H618.143V548.571H616.143ZM617.143 616.143H548.571V618.143H617.143V616.143ZM549.571 617.143V548.571H547.571V617.143H549.571ZM548.571 686.714H617.143V684.714H548.571V686.714ZM616.143 685.714V754.286H618.143V685.714H616.143ZM617.143 753.286H548.571V755.286H617.143V753.286ZM549.571 754.286V685.714H547.571V754.286H549.571ZM548.571 823.857H617.143V821.857H548.571V823.857ZM616.143 822.857V891.429H618.143V822.857H616.143ZM617.143 890.429H548.571V892.429H617.143V890.429ZM549.571 891.429V822.857H547.571V891.429H549.571ZM753.286 0V68.5714H755.286V0H753.286ZM754.286 67.5714H685.714V69.5714H754.286V67.5714ZM686.714 68.5714V0H684.714V68.5714H686.714ZM685.714 138.143H754.286V136.143H685.714V138.143ZM753.286 137.143V205.714H755.286V137.143H753.286ZM754.286 204.714H685.714V206.714H754.286V204.714ZM686.714 205.714V137.143H684.714V205.714H686.714ZM685.714 275.286H754.286V273.286H685.714V275.286ZM753.286 274.286V342.857H755.286V274.286H753.286ZM754.286 341.857H685.714V343.857H754.286V341.857ZM686.714 342.857V274.286H684.714V342.857H686.714ZM685.714 412.429H754.286V410.429H685.714V412.429ZM753.286 411.429V480H755.286V411.429H753.286ZM754.286 479H685.714V481H754.286V479ZM686.714 480V411.429H684.714V480H686.714ZM685.714 549.571H754.286V547.571H685.714V549.571ZM753.286 548.571V617.143H755.286V548.571H753.286ZM754.286 616.143H685.714V618.143H754.286V616.143ZM686.714 617.143V548.571H684.714V617.143H686.714ZM685.714 686.714H754.286V684.714H685.714V686.714ZM753.286 685.714V754.286H755.286V685.714H753.286ZM754.286 753.286H685.714V755.286H754.286V753.286ZM686.714 754.286V685.714H684.714V754.286H686.714ZM685.714 823.857H754.286V821.857H685.714V823.857ZM753.286 822.857V891.429H755.286V822.857H753.286ZM754.286 890.429H685.714V892.429H754.286V890.429ZM686.714 891.429V822.857H684.714V891.429H686.714ZM890.429 0V68.5714H892.429V0H890.429ZM891.429 67.5714H822.857V69.5714H891.429V67.5714ZM823.857 68.5714V0H821.857V68.5714H823.857ZM822.857 138.143H891.429V136.143H822.857V138.143ZM890.429 137.143V205.714H892.429V137.143H890.429ZM891.429 204.714H822.857V206.714H891.429V204.714ZM823.857 205.714V137.143H821.857V205.714H823.857ZM822.857 275.286H891.429V273.286H822.857V275.286ZM890.429 274.286V342.857H892.429V274.286H890.429ZM891.429 341.857H822.857V343.857H891.429V341.857ZM823.857 342.857V274.286H821.857V342.857H823.857ZM822.857 412.429H891.429V410.429H822.857V412.429ZM890.429 411.429V480H892.429V411.429H890.429ZM891.429 479H822.857V481H891.429V479ZM823.857 480V411.429H821.857V480H823.857ZM822.857 549.571H891.429V547.571H822.857V549.571ZM890.429 548.571V617.143H892.429V548.571H890.429ZM891.429 616.143H822.857V618.143H891.429V616.143ZM823.857 617.143V548.571H821.857V617.143H823.857ZM822.857 686.714H891.429V684.714H822.857V686.714ZM890.429 685.714V754.286H892.429V685.714H890.429ZM891.429 753.286H822.857V755.286H891.429V753.286ZM823.857 754.286V685.714H821.857V754.286H823.857ZM822.857 823.857H891.429V821.857H822.857V823.857ZM890.429 822.857V891.429H892.429V822.857H890.429ZM891.429 890.429H822.857V892.429H891.429V890.429ZM823.857 891.429V822.857H821.857V891.429H823.857ZM1027.57 0V68.5714H1029.57V0H1027.57ZM1028.57 67.5714H960V69.5714H1028.57V67.5714ZM961 68.5714V0H959V68.5714H961ZM960 138.143H1028.57V136.143H960V138.143ZM1027.57 137.143V205.714H1029.57V137.143H1027.57ZM1028.57 204.714H960V206.714H1028.57V204.714ZM961 205.714V137.143H959V205.714H961ZM960 275.286H1028.57V273.286H960V275.286ZM1027.57 274.286V342.857H1029.57V274.286H1027.57ZM1028.57 341.857H960V343.857H1028.57V341.857ZM961 342.857V274.286H959V342.857H961ZM960 412.429H1028.57V410.429H960V412.429ZM1027.57 411.429V480H1029.57V411.429H1027.57ZM1028.57 479H960V481H1028.57V479ZM961 480V411.429H959V480H961ZM960 549.571H1028.57V547.571H960V549.571ZM1027.57 548.571V617.143H1029.57V548.571H1027.57ZM1028.57 616.143H960V618.143H1028.57V616.143ZM961 617.143V548.571H959V617.143H961ZM960 686.714H1028.57V684.714H960V686.714ZM1027.57 685.714V754.286H1029.57V685.714H1027.57ZM1028.57 753.286H960V755.286H1028.57V753.286ZM961 754.286V685.714H959V754.286H961ZM960 823.857H1028.57V821.857H960V823.857ZM1027.57 822.857V891.429H1029.57V822.857H1027.57ZM1028.57 890.429H960V892.429H1028.57V890.429ZM961 891.429V822.857H959V891.429H961ZM1164.71 0V68.5714H1166.71V0H1164.71ZM1165.71 67.5714H1097.14V69.5714H1165.71V67.5714ZM1098.14 68.5714V0H1096.14V68.5714H1098.14ZM1097.14 138.143H1165.71V136.143H1097.14V138.143ZM1164.71 137.143V205.714H1166.71V137.143H1164.71ZM1165.71 204.714H1097.14V206.714H1165.71V204.714ZM1098.14 205.714V137.143H1096.14V205.714H1098.14ZM1097.14 275.286H1165.71V273.286H1097.14V275.286ZM1164.71 274.286V342.857H1166.71V274.286H1164.71ZM1165.71 341.857H1097.14V343.857H1165.71V341.857ZM1098.14 342.857V274.286H1096.14V342.857H1098.14ZM1097.14 412.429H1165.71V410.429H1097.14V412.429ZM1164.71 411.429V480H1166.71V411.429H1164.71ZM1165.71 479H1097.14V481H1165.71V479ZM1098.14 480V411.429H1096.14V480H1098.14ZM1097.14 549.571H1165.71V547.571H1097.14V549.571ZM1164.71 548.571V617.143H1166.71V548.571H1164.71ZM1165.71 616.143H1097.14V618.143H1165.71V616.143ZM1098.14 617.143V548.571H1096.14V617.143H1098.14ZM1097.14 686.714H1165.71V684.714H1097.14V686.714ZM1164.71 685.714V754.286H1166.71V685.714H1164.71ZM1165.71 753.286H1097.14V755.286H1165.71V753.286ZM1098.14 754.286V685.714H1096.14V754.286H1098.14ZM1097.14 823.857H1165.71V821.857H1097.14V823.857ZM1164.71 822.857V891.429H1166.71V822.857H1164.71ZM1165.71 890.429H1097.14V892.429H1165.71V890.429ZM1098.14 891.429V822.857H1096.14V891.429H1098.14ZM1301.86 0V68.5714H1303.86V0H1301.86ZM1302.86 67.5714H1234.29V69.5714H1302.86V67.5714ZM1235.29 68.5714V0H1233.29V68.5714H1235.29ZM1234.29 138.143H1302.86V136.143H1234.29V138.143ZM1301.86 137.143V205.714H1303.86V137.143H1301.86ZM1302.86 204.714H1234.29V206.714H1302.86V204.714ZM1235.29 205.714V137.143H1233.29V205.714H1235.29ZM1234.29 275.286H1302.86V273.286H1234.29V275.286ZM1301.86 274.286V342.857H1303.86V274.286H1301.86ZM1302.86 341.857H1234.29V343.857H1302.86V341.857ZM1235.29 342.857V274.286H1233.29V342.857H1235.29ZM1234.29 412.429H1302.86V410.429H1234.29V412.429ZM1301.86 411.429V480H1303.86V411.429H1301.86ZM1302.86 479H1234.29V481H1302.86V479ZM1235.29 480V411.429H1233.29V480H1235.29ZM1234.29 549.571H1302.86V547.571H1234.29V549.571ZM1301.86 548.571V617.143H1303.86V548.571H1301.86ZM1302.86 616.143H1234.29V618.143H1302.86V616.143ZM1235.29 617.143V548.571H1233.29V617.143H1235.29ZM1234.29 686.714H1302.86V684.714H1234.29V686.714ZM1301.86 685.714V754.286H1303.86V685.714H1301.86ZM1302.86 753.286H1234.29V755.286H1302.86V753.286ZM1235.29 754.286V685.714H1233.29V754.286H1235.29ZM1234.29 823.857H1302.86V821.857H1234.29V823.857ZM1301.86 822.857V891.429H1303.86V822.857H1301.86ZM1302.86 890.429H1234.29V892.429H1302.86V890.429ZM1235.29 891.429V822.857H1233.29V891.429H1235.29ZM1440 67.5714H1371.43V69.5714H1440V67.5714ZM1372.43 68.5714V0H1370.43V68.5714H1372.43ZM1371.43 138.143H1440V136.143H1371.43V138.143ZM1440 204.714H1371.43V206.714H1440V204.714ZM1372.43 205.714V137.143H1370.43V205.714H1372.43ZM1371.43 275.286H1440V273.286H1371.43V275.286ZM1440 341.857H1371.43V343.857H1440V341.857ZM1372.43 342.857V274.286H1370.43V342.857H1372.43ZM1371.43 412.429H1440V410.429H1371.43V412.429ZM1440 479H1371.43V481H1440V479ZM1372.43 480V411.429H1370.43V480H1372.43ZM1371.43 549.571H1440V547.571H1371.43V549.571ZM1440 616.143H1371.43V618.143H1440V616.143ZM1372.43 617.143V548.571H1370.43V617.143H1372.43ZM1371.43 686.714H1440V684.714H1371.43V686.714ZM1440 753.286H1371.43V755.286H1440V753.286ZM1372.43 754.286V685.714H1370.43V754.286H1372.43ZM1371.43 823.857H1440V821.857H1371.43V823.857ZM1440 890.429H1371.43V892.429H1440V890.429ZM1372.43 891.429V822.857H1370.43V891.429H1372.43ZM137.143 67.5714H68.5714V69.5714H137.143V67.5714ZM68.5714 138.143H137.143V136.143H68.5714V138.143ZM137.143 204.714H68.5714V206.714H137.143V204.714ZM68.5714 275.286H137.143V273.286H68.5714V275.286ZM137.143 341.857H68.5714V343.857H137.143V341.857ZM68.5714 412.429H137.143V410.429H68.5714V412.429ZM137.143 479H68.5714V481H137.143V479ZM68.5714 549.571H137.143V547.571H68.5714V549.571ZM137.143 616.143H68.5714V618.143H137.143V616.143ZM68.5714 686.714H137.143V684.714H68.5714V686.714ZM137.143 753.286H68.5714V755.286H137.143V753.286ZM68.5714 823.857H137.143V821.857H68.5714V823.857ZM137.143 890.429H68.5714V892.429H137.143V890.429ZM274.286 67.5714H205.714V69.5714H274.286V67.5714ZM205.714 138.143H274.286V136.143H205.714V138.143ZM274.286 204.714H205.714V206.714H274.286V204.714ZM205.714 275.286H274.286V273.286H205.714V275.286ZM274.286 341.857H205.714V343.857H274.286V341.857ZM205.714 412.429H274.286V410.429H205.714V412.429ZM274.286 479H205.714V481H274.286V479ZM205.714 549.571H274.286V547.571H205.714V549.571ZM274.286 616.143H205.714V618.143H274.286V616.143ZM205.714 686.714H274.286V684.714H205.714V686.714ZM274.286 753.286H205.714V755.286H274.286V753.286ZM205.714 823.857H274.286V821.857H205.714V823.857ZM274.286 890.429H205.714V892.429H274.286V890.429ZM411.429 67.5714H342.857V69.5714H411.429V67.5714ZM342.857 138.143H411.429V136.143H342.857V138.143ZM411.429 204.714H342.857V206.714H411.429V204.714ZM342.857 275.286H411.429V273.286H342.857V275.286ZM411.429 341.857H342.857V343.857H411.429V341.857ZM342.857 412.429H411.429V410.429H342.857V412.429ZM411.429 479H342.857V481H411.429V479ZM342.857 549.571H411.429V547.571H342.857V549.571ZM411.429 616.143H342.857V618.143H411.429V616.143ZM342.857 686.714H411.429V684.714H342.857V686.714ZM411.429 753.286H342.857V755.286H411.429V753.286ZM342.857 823.857H411.429V821.857H342.857V823.857ZM411.429 890.429H342.857V892.429H411.429V890.429ZM548.571 67.5714H480V69.5714H548.571V67.5714ZM480 138.143H548.571V136.143H480V138.143ZM548.571 204.714H480V206.714H548.571V204.714ZM480 275.286H548.571V273.286H480V275.286ZM548.571 341.857H480V343.857H548.571V341.857ZM480 412.429H548.571V410.429H480V412.429ZM548.571 479H480V481H548.571V479ZM480 549.571H548.571V547.571H480V549.571ZM548.571 616.143H480V618.143H548.571V616.143ZM480 686.714H548.571V684.714H480V686.714ZM548.571 753.286H480V755.286H548.571V753.286ZM480 823.857H548.571V821.857H480V823.857ZM548.571 890.429H480V892.429H548.571V890.429ZM685.714 67.5714H617.143V69.5714H685.714V67.5714ZM617.143 138.143H685.714V136.143H617.143V138.143ZM685.714 204.714H617.143V206.714H685.714V204.714ZM617.143 275.286H685.714V273.286H617.143V275.286ZM685.714 341.857H617.143V343.857H685.714V341.857ZM617.143 412.429H685.714V410.429H617.143V412.429ZM685.714 479H617.143V481H685.714V479ZM617.143 549.571H685.714V547.571H617.143V549.571ZM685.714 616.143H617.143V618.143H685.714V616.143ZM617.143 686.714H685.714V684.714H617.143V686.714ZM685.714 753.286H617.143V755.286H685.714V753.286ZM617.143 823.857H685.714V821.857H617.143V823.857ZM685.714 890.429H617.143V892.429H685.714V890.429ZM822.857 67.5714H754.286V69.5714H822.857V67.5714ZM754.286 138.143H822.857V136.143H754.286V138.143ZM822.857 204.714H754.286V206.714H822.857V204.714ZM754.286 275.286H822.857V273.286H754.286V275.286ZM822.857 341.857H754.286V343.857H822.857V341.857ZM754.286 412.429H822.857V410.429H754.286V412.429ZM822.857 479H754.286V481H822.857V479ZM754.286 549.571H822.857V547.571H754.286V549.571ZM822.857 616.143H754.286V618.143H822.857V616.143ZM754.286 686.714H822.857V684.714H754.286V686.714ZM822.857 753.286H754.286V755.286H822.857V753.286ZM754.286 823.857H822.857V821.857H754.286V823.857ZM822.857 890.429H754.286V892.429H822.857V890.429ZM960 67.5714H891.429V69.5714H960V67.5714ZM891.429 138.143H960V136.143H891.429V138.143ZM960 204.714H891.429V206.714H960V204.714ZM891.429 275.286H960V273.286H891.429V275.286ZM960 341.857H891.429V343.857H960V341.857ZM891.429 412.429H960V410.429H891.429V412.429ZM960 479H891.429V481H960V479ZM891.429 549.571H960V547.571H891.429V549.571ZM960 616.143H891.429V618.143H960V616.143ZM891.429 686.714H960V684.714H891.429V686.714ZM960 753.286H891.429V755.286H960V753.286ZM891.429 823.857H960V821.857H891.429V823.857ZM960 890.429H891.429V892.429H960V890.429ZM1097.14 67.5714H1028.57V69.5714H1097.14V67.5714ZM1028.57 138.143H1097.14V136.143H1028.57V138.143ZM1097.14 204.714H1028.57V206.714H1097.14V204.714ZM1028.57 275.286H1097.14V273.286H1028.57V275.286ZM1097.14 341.857H1028.57V343.857H1097.14V341.857ZM1028.57 412.429H1097.14V410.429H1028.57V412.429ZM1097.14 479H1028.57V481H1097.14V479ZM1028.57 549.571H1097.14V547.571H1028.57V549.571ZM1097.14 616.143H1028.57V618.143H1097.14V616.143ZM1028.57 686.714H1097.14V684.714H1028.57V686.714ZM1097.14 753.286H1028.57V755.286H1097.14V753.286ZM1028.57 823.857H1097.14V821.857H1028.57V823.857ZM1097.14 890.429H1028.57V892.429H1097.14V890.429ZM1234.29 67.5714H1165.71V69.5714H1234.29V67.5714ZM1165.71 138.143H1234.29V136.143H1165.71V138.143ZM1234.29 204.714H1165.71V206.714H1234.29V204.714ZM1165.71 275.286H1234.29V273.286H1165.71V275.286ZM1234.29 341.857H1165.71V343.857H1234.29V341.857ZM1165.71 412.429H1234.29V410.429H1165.71V412.429ZM1234.29 479H1165.71V481H1234.29V479ZM1165.71 549.571H1234.29V547.571H1165.71V549.571ZM1234.29 616.143H1165.71V618.143H1234.29V616.143ZM1165.71 686.714H1234.29V684.714H1165.71V686.714ZM1234.29 753.286H1165.71V755.286H1234.29V753.286ZM1165.71 823.857H1234.29V821.857H1165.71V823.857ZM1234.29 890.429H1165.71V892.429H1234.29V890.429ZM1371.43 67.5714H1302.86V69.5714H1371.43V67.5714ZM1302.86 138.143H1371.43V136.143H1302.86V138.143ZM1371.43 204.714H1302.86V206.714H1371.43V204.714ZM1302.86 275.286H1371.43V273.286H1302.86V275.286ZM1371.43 341.857H1302.86V343.857H1371.43V341.857ZM1302.86 412.429H1371.43V410.429H1302.86V412.429ZM1371.43 479H1302.86V481H1371.43V479ZM1302.86 549.571H1371.43V547.571H1302.86V549.571ZM1371.43 616.143H1302.86V618.143H1371.43V616.143ZM1302.86 686.714H1371.43V684.714H1302.86V686.714ZM1371.43 753.286H1302.86V755.286H1371.43V753.286ZM1302.86 823.857H1371.43V821.857H1302.86V823.857ZM1371.43 890.429H1302.86V892.429H1371.43V890.429ZM136.143 68.5714V137.143H138.143V68.5714H136.143ZM69.5714 137.143V68.5714H67.5714V137.143H69.5714ZM136.143 205.714V274.286H138.143V205.714H136.143ZM69.5714 274.286V205.714H67.5714V274.286H69.5714ZM136.143 342.857V411.429H138.143V342.857H136.143ZM69.5714 411.429V342.857H67.5714V411.429H69.5714ZM136.143 480V548.571H138.143V480H136.143ZM69.5714 548.571V480H67.5714V548.571H69.5714ZM136.143 617.143V685.714H138.143V617.143H136.143ZM69.5714 685.714V617.143H67.5714V685.714H69.5714ZM136.143 754.286V822.857H138.143V754.286H136.143ZM69.5714 822.857V754.286H67.5714V822.857H69.5714ZM136.143 891.429V960H138.143V891.429H136.143ZM69.5714 960V891.429H67.5714V960H69.5714ZM273.286 68.5714V137.143H275.286V68.5714H273.286ZM206.714 137.143V68.5714H204.714V137.143H206.714ZM273.286 205.714V274.286H275.286V205.714H273.286ZM206.714 274.286V205.714H204.714V274.286H206.714ZM273.286 342.857V411.429H275.286V342.857H273.286ZM206.714 411.429V342.857H204.714V411.429H206.714ZM273.286 480V548.571H275.286V480H273.286ZM206.714 548.571V480H204.714V548.571H206.714ZM273.286 617.143V685.714H275.286V617.143H273.286ZM206.714 685.714V617.143H204.714V685.714H206.714ZM273.286 754.286V822.857H275.286V754.286H273.286ZM206.714 822.857V754.286H204.714V822.857H206.714ZM273.286 891.429V960H275.286V891.429H273.286ZM206.714 960V891.429H204.714V960H206.714ZM410.429 68.5714V137.143H412.429V68.5714H410.429ZM343.857 137.143V68.5714H341.857V137.143H343.857ZM410.429 205.714V274.286H412.429V205.714H410.429ZM343.857 274.286V205.714H341.857V274.286H343.857ZM410.429 342.857V411.429H412.429V342.857H410.429ZM343.857 411.429V342.857H341.857V411.429H343.857ZM410.429 480V548.571H412.429V480H410.429ZM343.857 548.571V480H341.857V548.571H343.857ZM410.429 617.143V685.714H412.429V617.143H410.429ZM343.857 685.714V617.143H341.857V685.714H343.857ZM410.429 754.286V822.857H412.429V754.286H410.429ZM343.857 822.857V754.286H341.857V822.857H343.857ZM410.429 891.429V960H412.429V891.429H410.429ZM343.857 960V891.429H341.857V960H343.857ZM547.571 68.5714V137.143H549.571V68.5714H547.571ZM481 137.143V68.5714H479V137.143H481ZM547.571 205.714V274.286H549.571V205.714H547.571ZM481 274.286V205.714H479V274.286H481ZM547.571 342.857V411.429H549.571V342.857H547.571ZM481 411.429V342.857H479V411.429H481ZM547.571 480V548.571H549.571V480H547.571ZM481 548.571V480H479V548.571H481ZM547.571 617.143V685.714H549.571V617.143H547.571ZM481 685.714V617.143H479V685.714H481ZM547.571 754.286V822.857H549.571V754.286H547.571ZM481 822.857V754.286H479V822.857H481ZM547.571 891.429V960H549.571V891.429H547.571ZM481 960V891.429H479V960H481ZM684.714 68.5714V137.143H686.714V68.5714H684.714ZM618.143 137.143V68.5714H616.143V137.143H618.143ZM684.714 205.714V274.286H686.714V205.714H684.714ZM618.143 274.286V205.714H616.143V274.286H618.143ZM684.714 342.857V411.429H686.714V342.857H684.714ZM618.143 411.429V342.857H616.143V411.429H618.143ZM684.714 480V548.571H686.714V480H684.714ZM618.143 548.571V480H616.143V548.571H618.143ZM684.714 617.143V685.714H686.714V617.143H684.714ZM618.143 685.714V617.143H616.143V685.714H618.143ZM684.714 754.286V822.857H686.714V754.286H684.714ZM618.143 822.857V754.286H616.143V822.857H618.143ZM684.714 891.429V960H686.714V891.429H684.714ZM618.143 960V891.429H616.143V960H618.143ZM821.857 68.5714V137.143H823.857V68.5714H821.857ZM755.286 137.143V68.5714H753.286V137.143H755.286ZM821.857 205.714V274.286H823.857V205.714H821.857ZM755.286 274.286V205.714H753.286V274.286H755.286ZM821.857 342.857V411.429H823.857V342.857H821.857ZM755.286 411.429V342.857H753.286V411.429H755.286ZM821.857 480V548.571H823.857V480H821.857ZM755.286 548.571V480H753.286V548.571H755.286ZM821.857 617.143V685.714H823.857V617.143H821.857ZM755.286 685.714V617.143H753.286V685.714H755.286ZM821.857 754.286V822.857H823.857V754.286H821.857ZM755.286 822.857V754.286H753.286V822.857H755.286ZM821.857 891.429V960H823.857V891.429H821.857ZM755.286 960V891.429H753.286V960H755.286ZM959 68.5714V137.143H961V68.5714H959ZM892.429 137.143V68.5714H890.429V137.143H892.429ZM959 205.714V274.286H961V205.714H959ZM892.429 274.286V205.714H890.429V274.286H892.429ZM959 342.857V411.429H961V342.857H959ZM892.429 411.429V342.857H890.429V411.429H892.429ZM959 480V548.571H961V480H959ZM892.429 548.571V480H890.429V548.571H892.429ZM959 617.143V685.714H961V617.143H959ZM892.429 685.714V617.143H890.429V685.714H892.429ZM959 754.286V822.857H961V754.286H959ZM892.429 822.857V754.286H890.429V822.857H892.429ZM959 891.429V960H961V891.429H959ZM892.429 960V891.429H890.429V960H892.429ZM1096.14 68.5714V137.143H1098.14V68.5714H1096.14ZM1029.57 137.143V68.5714H1027.57V137.143H1029.57ZM1096.14 205.714V274.286H1098.14V205.714H1096.14ZM1029.57 274.286V205.714H1027.57V274.286H1029.57ZM1096.14 342.857V411.429H1098.14V342.857H1096.14ZM1029.57 411.429V342.857H1027.57V411.429H1029.57ZM1096.14 480V548.571H1098.14V480H1096.14ZM1029.57 548.571V480H1027.57V548.571H1029.57ZM1096.14 617.143V685.714H1098.14V617.143H1096.14ZM1029.57 685.714V617.143H1027.57V685.714H1029.57ZM1096.14 754.286V822.857H1098.14V754.286H1096.14ZM1029.57 822.857V754.286H1027.57V822.857H1029.57ZM1096.14 891.429V960H1098.14V891.429H1096.14ZM1029.57 960V891.429H1027.57V960H1029.57ZM1233.29 68.5714V137.143H1235.29V68.5714H1233.29ZM1166.71 137.143V68.5714H1164.71V137.143H1166.71ZM1233.29 205.714V274.286H1235.29V205.714H1233.29ZM1166.71 274.286V205.714H1164.71V274.286H1166.71ZM1233.29 342.857V411.429H1235.29V342.857H1233.29ZM1166.71 411.429V342.857H1164.71V411.429H1166.71ZM1233.29 480V548.571H1235.29V480H1233.29ZM1166.71 548.571V480H1164.71V548.571H1166.71ZM1233.29 617.143V685.714H1235.29V617.143H1233.29ZM1166.71 685.714V617.143H1164.71V685.714H1166.71ZM1233.29 754.286V822.857H1235.29V754.286H1233.29ZM1166.71 822.857V754.286H1164.71V822.857H1166.71ZM1233.29 891.429V960H1235.29V891.429H1233.29ZM1166.71 960V891.429H1164.71V960H1166.71ZM1370.43 68.5714V137.143H1372.43V68.5714H1370.43ZM1303.86 137.143V68.5714H1301.86V137.143H1303.86ZM1370.43 205.714V274.286H1372.43V205.714H1370.43ZM1303.86 274.286V205.714H1301.86V274.286H1303.86ZM1370.43 342.857V411.429H1372.43V342.857H1370.43ZM1303.86 411.429V342.857H1301.86V411.429H1303.86ZM1370.43 480V548.571H1372.43V480H1370.43ZM1303.86 548.571V480H1301.86V548.571H1303.86ZM1370.43 617.143V685.714H1372.43V617.143H1370.43ZM1303.86 685.714V617.143H1301.86V685.714H1303.86ZM1370.43 754.286V822.857H1372.43V754.286H1370.43ZM1303.86 822.857V754.286H1301.86V822.857H1303.86ZM1370.43 891.429V960H1372.43V891.429H1370.43ZM1303.86 960V891.429H1301.86V960H1303.86ZM0 0V-2H-2V0H0ZM1440 0H1442V-2H1440V0ZM1440 960V962H1442V960H1440ZM0 960H-2V962H0V960ZM0 2H68.5714V-2H0V2ZM2 68.5714V0H-2V68.5714H2ZM2 205.714V137.143H-2V205.714H2ZM2 342.857V274.286H-2V342.857H2ZM2 480V411.429H-2V480H2ZM2 617.143V548.571H-2V617.143H2ZM2 754.286V685.714H-2V754.286H2ZM2 891.429V822.857H-2V891.429H2ZM137.143 2H205.714V-2H137.143V2ZM274.286 2H342.857V-2H274.286V2ZM411.429 2H480V-2H411.429V2ZM548.571 2H617.143V-2H548.571V2ZM685.714 2H754.286V-2H685.714V2ZM822.857 2H891.429V-2H822.857V2ZM960 2H1028.57V-2H960V2ZM1097.14 2H1165.71V-2H1097.14V2ZM1234.29 2H1302.86V-2H1234.29V2ZM1371.43 2H1440V-2H1371.43V2ZM1438 0V68.5714H1442V0H1438ZM1438 137.143V205.714H1442V137.143H1438ZM1438 274.286V342.857H1442V274.286H1438ZM1438 411.429V480H1442V411.429H1438ZM1438 548.571V617.143H1442V548.571H1438ZM1438 685.714V754.286H1442V685.714H1438ZM1438 822.857V891.429H1442V822.857H1438ZM68.5714 2H137.143V-2H68.5714V2ZM205.714 2H274.286V-2H205.714V2ZM342.857 2H411.429V-2H342.857V2ZM480 2H548.571V-2H480V2ZM617.143 2H685.714V-2H617.143V2ZM754.286 2H822.857V-2H754.286V2ZM891.429 2H960V-2H891.429V2ZM1028.57 2H1097.14V-2H1028.57V2ZM1165.71 2H1234.29V-2H1165.71V2ZM1302.86 2H1371.43V-2H1302.86V2ZM137.143 958H68.5714V962H137.143V958ZM274.286 958H205.714V962H274.286V958ZM411.429 958H342.857V962H411.429V958ZM548.571 958H480V962H548.571V958ZM685.714 958H617.143V962H685.714V958ZM822.857 958H754.286V962H822.857V958ZM960 958H891.429V962H960V958ZM1097.14 958H1028.57V962H1097.14V958ZM1234.29 958H1165.71V962H1234.29V958ZM1371.43 958H1302.86V962H1371.43V958ZM1442 137.143V68.5714H1438V137.143H1442ZM1442 274.286V205.714H1438V274.286H1442ZM1442 411.429V342.857H1438V411.429H1442ZM1442 548.571V480H1438V548.571H1442ZM1442 685.714V617.143H1438V685.714H1442ZM1442 822.857V754.286H1438V822.857H1442ZM1442 960V891.429H1438V960H1442ZM2 137.143V68.5714H-2V137.143H2ZM2 274.286V205.714H-2V274.286H2ZM2 411.429V342.857H-2V411.429H2ZM2 548.571V480H-2V548.571H2ZM2 685.714V617.143H-2V685.714H2ZM2 822.857V754.286H-2V822.857H2ZM68.5714 958H0V962H68.5714V958ZM2 960V891.429H-2V960H2ZM205.714 958H137.143V962H205.714V958ZM342.857 958H274.286V962H342.857V958ZM480 958H411.429V962H480V958ZM617.143 958H548.571V962H617.143V958ZM754.286 958H685.714V962H754.286V958ZM891.429 958H822.857V962H891.429V958ZM1028.57 958H960V962H1028.57V958ZM1165.71 958H1097.14V962H1165.71V958ZM1302.86 958H1234.29V962H1302.86V958ZM1440 958H1371.43V962H1440V958Z" fill="url(#paint0_linear_415_2921)" mask="url(#path-1-inside-1_415_2921)"/>
<defs>
<linearGradient id="paint0_linear_415_2921" x1="720" y1="0" x2="720" y2="960" gradientUnits="userSpaceOnUse">
<stop stop-color="#E3ECEC" stop-opacity="0"/>
<stop offset="0.390625" stop-color="#E3ECEC"/>
<stop offset="0.666667" stop-color="#E3ECEC"/>
<stop offset="1" stop-color="#E3ECEC" stop-opacity="0"/>
</linearGradient>
</defs>
</svg>
