<svg width="25" height="24" viewBox="0 0 25 24" fill="none" xmlns="http://www.w3.org/2000/svg">
<path d="M22.7467 0H2.16987C1.22701 0 0.460938 0.776786 0.460938 1.73036V22.2696C0.460938 23.2232 1.22701 24 2.16987 24H22.7467C23.6895 24 24.4609 23.2232 24.4609 22.2696V1.73036C24.4609 0.776786 23.6895 0 22.7467 0ZM7.71451 20.5714H4.15737V9.11786H7.71987V20.5714H7.71451ZM5.93594 7.55357C4.79487 7.55357 3.87344 6.62679 3.87344 5.49107C3.87344 4.35536 4.79487 3.42857 5.93594 3.42857C7.07165 3.42857 7.99844 4.35536 7.99844 5.49107C7.99844 6.63214 7.07701 7.55357 5.93594 7.55357ZM21.0484 20.5714H17.4913V15C17.4913 13.6714 17.4645 11.9625 15.6431 11.9625C13.7895 11.9625 13.5056 13.4089 13.5056 14.9036V20.5714H9.94844V9.11786H13.3609V10.6821H13.4092C13.8859 9.78214 15.0484 8.83393 16.7788 8.83393C20.3788 8.83393 21.0484 11.2071 21.0484 14.2929V20.5714Z" fill="black"/>
</svg>
