<svg width="48" height="48" viewBox="0 0 48 48" fill="none" xmlns="http://www.w3.org/2000/svg">
<rect width="48" height="48" rx="24" fill="#CBE8DB"/>
<path d="M13 15.9996V21.9996M13 21.9996H19M13 21.9996L17.64 17.6396C18.7147 16.5643 20.0444 15.7788 21.5048 15.3564C22.9652 14.9339 24.5089 14.8883 25.9917 15.2238C27.4745 15.5594 28.8482 16.265 29.9845 17.275C31.1209 18.285 31.9828 19.5664 32.49 20.9996M35 31.9996V25.9996M35 25.9996H29M35 25.9996L30.36 30.3596C29.2853 31.4349 27.9556 32.2204 26.4952 32.6428C25.0348 33.0652 23.4911 33.1108 22.0083 32.7753C20.5255 32.4398 19.1518 31.7342 18.0155 30.7242C16.8791 29.7142 16.0172 28.4328 15.51 26.9996" stroke="#017B3B" stroke-width="2" stroke-linecap="round" stroke-linejoin="round"/>
</svg>
