<svg width="243" height="489" viewBox="0 0 243 489" fill="none" xmlns="http://www.w3.org/2000/svg">
<path d="M200.212 32.6L210.4 39.0036V48.6089L200.212 55.0125L190.025 48.6089V39.0036L200.212 32.6Z" fill="#1E2331"/>
<path d="M200.212 71.3125L210.4 77.7161V87.3214L200.212 93.725L190.025 87.3214V77.7161L200.212 71.3125Z" fill="#1E2331"/>
<path d="M200.212 110.025L210.4 116.429V126.034L200.212 132.438L190.025 126.034V116.429L200.212 110.025Z" fill="#1E2331"/>
<path d="M200.212 148.738L210.4 155.141V164.746L200.212 171.15L190.025 164.746V155.141L200.212 148.738Z" fill="#1E2331"/>
<path d="M200.212 187.45L210.4 193.854V203.459L200.212 209.863L190.025 203.459V193.854L200.212 187.45Z" fill="#1E2331"/>
<path d="M187.987 50.9375L198.175 57.3411V66.9464L187.987 73.35L177.8 66.9464V57.3411L187.987 50.9375Z" fill="#1E2331"/>
<path d="M212.437 50.9375L222.625 57.3411V66.9464L212.437 73.35L202.25 66.9464V57.3411L212.437 50.9375Z" fill="#1E2331"/>
<path d="M212.437 89.65L222.625 96.0536V105.659L212.437 112.063L202.25 105.659V96.0536L212.437 89.65Z" fill="#1E2331"/>
<path d="M224.662 69.275L234.85 75.6786V85.2839L224.662 91.6875L214.475 85.2839V75.6786L224.662 69.275Z" fill="#1E2331"/>
<path d="M139.087 393.238L149.275 399.641V409.246L139.087 415.65L128.9 409.246V399.641L139.087 393.238Z" fill="#1E2331"/>
<path d="M187.987 89.65L198.175 96.0536V105.659L187.987 112.063L177.8 105.659V96.0536L187.987 89.65Z" fill="#1E2331"/>
<path d="M187.987 128.363L198.175 134.766V144.371L187.987 150.775L177.8 144.371V134.766L187.987 128.363Z" fill="#1E2331"/>
<path d="M187.987 167.075L198.175 173.479V183.084L187.987 189.488L177.8 183.084V173.479L187.987 167.075Z" fill="#1E2331"/>
<path d="M187.987 205.788L198.175 212.191V221.796L187.987 228.2L177.8 221.796V212.191L187.987 205.788Z" fill="#1E2331"/>
<path d="M194.1 226.163L200.212 230.238V236.35L194.1 240.425L187.987 236.35V230.238L194.1 226.163Z" fill="#1E2331"/>
<path d="M169.65 303.588L175.762 307.663V313.775L169.65 317.85L163.537 313.775V307.663L169.65 303.588Z" fill="#1E2331"/>
<path d="M169.65 319.888L171.687 321.634V324.254L169.65 326L167.612 324.254V321.634L169.65 319.888Z" fill="#1E2331"/>
<path d="M192.062 244.5L194.1 246.246V248.866L192.062 250.613L190.025 248.866V246.246L192.062 244.5Z" fill="#1E2331"/>
<path d="M177.8 287.288L179.837 289.034V291.654L177.8 293.4L175.762 291.654V289.034L177.8 287.288Z" fill="#1E2331"/>
<path d="M177.8 297.475L179.837 299.221V301.841L177.8 303.588L175.762 301.841V299.221L177.8 297.475Z" fill="#1E2331"/>
<path d="M163.537 317.85L165.575 319.596V322.216L163.537 323.963L161.5 322.216V319.596L163.537 317.85Z" fill="#1E2331"/>
<path d="M185.95 242.463L187.987 244.209V246.829L185.95 248.575L183.912 246.829V244.209L185.95 242.463Z" fill="#1E2331"/>
<path d="M183.912 250.613L190.025 254.688V260.8L183.912 264.875L177.8 260.8V254.688L183.912 250.613Z" fill="#1E2331"/>
<path d="M159.462 323.963L165.575 328.038V334.15L159.462 338.225L153.35 334.15V328.038L159.462 323.963Z" fill="#1E2331"/>
<path d="M175.762 69.275L185.95 75.6786V85.2839L175.762 91.6875L165.575 85.2839V75.6786L175.762 69.275Z" fill="#1E2331"/>
<path d="M175.762 107.988L185.95 114.391V123.996L175.762 130.4L165.575 123.996V114.391L175.762 107.988Z" fill="#1E2331"/>
<path d="M175.762 146.7L185.95 153.104V162.709L175.762 169.113L165.575 162.709V153.104L175.762 146.7Z" fill="#1E2331"/>
<path d="M175.762 185.413L185.95 191.816V201.421L175.762 207.825L165.575 201.421V191.816L175.762 185.413Z" fill="#1E2331"/>
<path d="M175.762 224.125L185.95 230.529V240.134L175.762 246.538L165.575 240.134V230.529L175.762 224.125Z" fill="#1E2331"/>
<path d="M175.762 262.838L185.95 269.241V278.846L175.762 285.25L165.575 278.846V269.241L175.762 262.838Z" fill="#1E2331"/>
<path d="M163.537 87.6125L173.725 94.0161V103.621L163.537 110.025L153.35 103.621V94.0161L163.537 87.6125Z" fill="#1E2331"/>
<path d="M163.537 126.325L173.725 132.729V142.334L163.537 148.738L153.35 142.334V132.729L163.537 126.325Z" fill="#1E2331"/>
<path d="M163.537 165.038L173.725 171.441V181.046L163.537 187.45L153.35 181.046V171.441L163.537 165.038Z" fill="#1E2331"/>
<path d="M163.537 203.75L173.725 210.154V219.759L163.537 226.163L153.35 219.759V210.154L163.537 203.75Z" fill="#1E2331"/>
<path d="M163.537 242.463L173.725 248.866V258.471L163.537 264.875L153.35 258.471V248.866L163.537 242.463Z" fill="#1E2331"/>
<path d="M163.537 281.175L173.725 287.579V297.184L163.537 303.588L153.35 297.184V287.579L163.537 281.175Z" fill="#1E2331"/>
<path d="M151.312 105.95L161.5 112.354V121.959L151.312 128.363L141.125 121.959V112.354L151.312 105.95Z" fill="#1E2331"/>
<path d="M151.312 144.663L161.5 151.066V160.671L151.312 167.075L141.125 160.671V151.066L151.312 144.663Z" fill="#1E2331"/>
<path d="M151.312 183.375L161.5 189.779V199.384L151.312 205.788L141.125 199.384V189.779L151.312 183.375Z" fill="#1E2331"/>
<path d="M151.312 222.088L161.5 228.491V238.096L151.312 244.5L141.125 238.096V228.491L151.312 222.088Z" fill="#1E2331"/>
<path d="M151.312 260.8L161.5 267.204V276.809L151.312 283.213L141.125 276.809V267.204L151.312 260.8Z" fill="#1E2331"/>
<path d="M151.312 299.513L161.5 305.916V315.521L151.312 321.925L141.125 315.521V305.916L151.312 299.513Z" fill="#1E2331"/>
<path d="M151.312 338.225L161.5 344.629V354.234L151.312 360.638L141.125 354.234V344.629L151.312 338.225Z" fill="#1E2331"/>
<path d="M139.087 124.288L149.275 130.691V140.296L139.087 146.7L128.9 140.296V130.691L139.087 124.288Z" fill="#1E2331"/>
<path d="M139.087 163L149.275 169.404V179.009L139.087 185.413L128.9 179.009V169.404L139.087 163Z" fill="#1E2331"/>
<path d="M139.087 201.713L149.275 208.116V217.721L139.087 224.125L128.9 217.721V208.116L139.087 201.713Z" fill="#1E2331"/>
<path d="M139.087 240.425L149.275 246.829V256.434L139.087 262.838L128.9 256.434V246.829L139.087 240.425Z" fill="#1E2331"/>
<path d="M139.087 279.138L149.275 285.541V295.146L139.087 301.55L128.9 295.146V285.541L139.087 279.138Z" fill="#1E2331"/>
<path d="M139.087 317.85L149.275 324.254V333.859L139.087 340.263L128.9 333.859V324.254L139.087 317.85Z" fill="#1E2331"/>
<path d="M139.087 356.562L149.275 362.966V372.571L139.087 378.975L128.9 372.571V362.966L139.087 356.562Z" fill="#1E2331"/>
<path d="M126.862 142.625L137.05 149.029V158.634L126.862 165.038L116.675 158.634V149.029L126.862 142.625Z" fill="#1E2331"/>
<path d="M126.862 181.338L137.05 187.741V197.346L126.862 203.75L116.675 197.346V187.741L126.862 181.338Z" fill="#1E2331"/>
<path d="M126.862 220.05L137.05 226.454V236.059L126.862 242.463L116.675 236.059V226.454L126.862 220.05Z" fill="#1E2331"/>
<path d="M126.862 258.763L137.05 265.166V274.771L126.862 281.175L116.675 274.771V265.166L126.862 258.763Z" fill="#1E2331"/>
<path d="M126.862 297.475L137.05 303.879V313.484L126.862 319.888L116.675 313.484V303.879L126.862 297.475Z" fill="#1E2331"/>
<path d="M126.862 336.188L137.05 342.591V352.196L126.862 358.6L116.675 352.196V342.591L126.862 336.188Z" fill="#1E2331"/>
<path d="M126.862 374.9L137.05 381.304V390.909L126.862 397.313L116.675 390.909V381.304L126.862 374.9Z" fill="#1E2331"/>
<path d="M126.862 413.613L137.05 420.016V429.621L126.862 436.025L116.675 429.621V420.016L126.862 413.613Z" fill="#1E2331"/>
<path d="M114.637 160.963L124.825 167.366V176.971L114.637 183.375L104.45 176.971V167.366L114.637 160.963Z" fill="#1E2331"/>
<path d="M114.637 122.25L124.825 128.654V138.259L114.637 144.663L104.45 138.259V128.654L114.637 122.25Z" fill="#1E2331"/>
<path d="M90.1874 120.213L100.375 126.616V136.221L90.1874 142.625L79.9996 136.221V126.616L90.1874 120.213Z" fill="#1E2331"/>
<path d="M53.5124 213.938L63.6996 220.341V229.946L53.5124 236.35L43.3246 229.946V220.341L53.5124 213.938Z" fill="#1E2331"/>
<path d="M114.637 199.675L124.825 206.079V215.684L114.637 222.088L104.45 215.684V206.079L114.637 199.675Z" fill="#1E2331"/>
<path d="M114.637 238.388L124.825 244.791V254.396L114.637 260.8L104.45 254.396V244.791L114.637 238.388Z" fill="#1E2331"/>
<path d="M114.637 277.1L124.825 283.504V293.109L114.637 299.513L104.45 293.109V283.504L114.637 277.1Z" fill="#1E2331"/>
<path d="M114.637 315.813L124.825 322.216V331.821L114.637 338.225L104.45 331.821V322.216L114.637 315.813Z" fill="#1E2331"/>
<path d="M114.637 354.525L124.825 360.929V370.534L114.637 376.938L104.45 370.534V360.929L114.637 354.525Z" fill="#1E2331"/>
<path d="M114.637 393.238L124.825 399.641V409.246L114.637 415.65L104.45 409.246V399.641L114.637 393.238Z" fill="#1E2331"/>
<path d="M114.637 431.95L124.825 438.354V447.959L114.637 454.363L104.45 447.959V438.354L114.637 431.95Z" fill="#1E2331"/>
<path d="M102.412 179.3L112.6 185.704V195.309L102.412 201.713L92.2246 195.309V185.704L102.412 179.3Z" fill="#1E2331"/>
<path d="M102.412 140.588L112.6 146.991V156.596L102.412 163L92.2246 156.596V146.991L102.412 140.588Z" fill="#1E2331"/>
<path d="M77.9624 138.55L88.1496 144.954V154.559L77.9624 160.963L67.7746 154.559V144.954L77.9624 138.55Z" fill="#1E2331"/>
<path d="M41.2874 232.275L51.4746 238.679V248.284L41.2874 254.688L31.0996 248.284V238.679L41.2874 232.275Z" fill="#1E2331"/>
<path d="M102.412 218.013L112.6 224.416V234.021L102.412 240.425L92.2246 234.021V224.416L102.412 218.013Z" fill="#1E2331"/>
<path d="M102.412 256.725L112.6 263.129V272.734L102.412 279.138L92.2246 272.734V263.129L102.412 256.725Z" fill="#1E2331"/>
<path d="M102.412 295.438L112.6 301.841V311.446L102.412 317.85L92.2246 311.446V301.841L102.412 295.438Z" fill="#1E2331"/>
<path d="M102.412 334.15L112.6 340.554V350.159L102.412 356.562L92.2246 350.159V340.554L102.412 334.15Z" fill="#1E2331"/>
<path d="M102.412 372.863L112.6 379.266V388.871L102.412 395.275L92.2246 388.871V379.266L102.412 372.863Z" fill="#1E2331"/>
<path d="M102.412 411.575L112.6 417.979V427.584L102.412 433.988L92.2246 427.584V417.979L102.412 411.575Z" fill="#1E2331"/>
<path d="M102.412 450.288L112.6 456.691V466.296L102.412 472.7L92.2246 466.296V456.691L102.412 450.288Z" fill="#1E2331"/>
<path d="M90.1874 197.638L100.375 204.041V213.646L90.1874 220.05L79.9996 213.646V204.041L90.1874 197.638Z" fill="#1E2331"/>
<path d="M90.1874 158.925L100.375 165.329V174.934L90.1874 181.338L79.9996 174.934V165.329L90.1874 158.925Z" fill="#1E2331"/>
<path d="M65.7374 156.888L75.9246 163.291V172.896L65.7374 179.3L55.5496 172.896V163.291L65.7374 156.888Z" fill="#1E2331"/>
<path d="M41.2874 154.85L51.4746 161.254V170.859L41.2874 177.263L31.0996 170.859V161.254L41.2874 154.85Z" fill="#1E2331"/>
<path d="M90.1874 236.35L100.375 242.754V252.359L90.1874 258.763L79.9996 252.359V242.754L90.1874 236.35Z" fill="#1E2331"/>
<path d="M90.1874 275.063L100.375 281.466V291.071L90.1874 297.475L79.9996 291.071V281.466L90.1874 275.063Z" fill="#1E2331"/>
<path d="M90.1874 313.775L100.375 320.179V329.784L90.1874 336.188L79.9996 329.784V320.179L90.1874 313.775Z" fill="#1E2331"/>
<path d="M90.1874 352.488L100.375 358.891V368.496L90.1874 374.9L79.9996 368.496V358.891L90.1874 352.488Z" fill="#1E2331"/>
<path d="M90.1874 391.2L100.375 397.604V407.209L90.1874 413.613L79.9996 407.209V397.604L90.1874 391.2Z" fill="#1E2331"/>
<path d="M90.1874 429.913L100.375 436.316V445.921L90.1874 452.325L79.9996 445.921V436.316L90.1874 429.913Z" fill="#1E2331"/>
<path d="M77.9624 215.975L88.1496 222.379V231.984L77.9624 238.388L67.7746 231.984V222.379L77.9624 215.975Z" fill="#1E2331"/>
<path d="M77.9624 177.263L88.1496 183.666V193.271L77.9624 199.675L67.7746 193.271V183.666L77.9624 177.263Z" fill="#1E2331"/>
<path d="M53.5124 175.225L63.6996 181.629V191.234L53.5124 197.638L43.3246 191.234V181.629L53.5124 175.225Z" fill="#1E2331"/>
<path d="M29.0624 173.188L39.2496 179.591V189.196L29.0624 195.6L18.8746 189.196V179.591L29.0624 173.188Z" fill="#1E2331"/>
<path d="M77.9624 254.688L88.1496 261.091V270.696L77.9624 277.1L67.7746 270.696V261.091L77.9624 254.688Z" fill="#1E2331"/>
<path d="M77.9624 293.4L88.1496 299.804V309.409L77.9624 315.813L67.7746 309.409V299.804L77.9624 293.4Z" fill="#1E2331"/>
<path d="M77.9624 332.113L88.1496 338.516V348.121L77.9624 354.525L67.7746 348.121V338.516L77.9624 332.113Z" fill="#1E2331"/>
<path d="M41.2874 348.413L51.4746 354.816V364.421L41.2874 370.825L31.0996 364.421V354.816L41.2874 348.413Z" fill="#1E2331"/>
<path d="M41.2874 309.7L51.4746 316.104V325.709L41.2874 332.113L31.0996 325.709V316.104L41.2874 309.7Z" fill="#1E2331"/>
<path d="M41.2874 387.125L51.4746 393.529V403.134L41.2874 409.538L31.0996 403.134V393.529L41.2874 387.125Z" fill="#1E2331"/>
<path d="M41.2874 425.838L51.4746 432.241V441.846L41.2874 448.25L31.0996 441.846V432.241L41.2874 425.838Z" fill="#1E2331"/>
<path d="M77.9624 370.825L88.1496 377.229V386.834L77.9624 393.238L67.7746 386.834V377.229L77.9624 370.825Z" fill="#1E2331"/>
<path d="M77.9624 409.538L88.1496 415.941V425.546L77.9624 431.95L67.7746 425.546V415.941L77.9624 409.538Z" fill="#1E2331"/>
<path d="M77.9624 448.25L88.1496 454.654V464.259L77.9624 470.663L67.7746 464.259V454.654L77.9624 448.25Z" fill="#1E2331"/>
<path d="M65.7374 234.313L75.9246 240.716V250.321L65.7374 256.725L55.5496 250.321V240.716L65.7374 234.313Z" fill="#1E2331"/>
<path d="M65.7374 195.6L75.9246 202.004V211.609L65.7374 218.013L55.5496 211.609V202.004L65.7374 195.6Z" fill="#1E2331"/>
<path d="M41.2874 193.563L51.4746 199.966V209.571L41.2874 215.975L31.0996 209.571V199.966L41.2874 193.563Z" fill="#1E2331"/>
<path d="M65.7374 273.025L75.9246 279.429V289.034L65.7374 295.438L55.5496 289.034V279.429L65.7374 273.025Z" fill="#1E2331"/>
<path d="M65.7374 311.738L75.9246 318.141V327.746L65.7374 334.15L55.5496 327.746V318.141L65.7374 311.738Z" fill="#1E2331"/>
<path d="M65.7374 350.45L75.9246 356.854V366.459L65.7374 372.863L55.5496 366.459V356.854L65.7374 350.45Z" fill="#1E2331"/>
<path d="M29.0624 366.75L39.2496 373.154V382.759L29.0624 389.163L18.8746 382.759V373.154L29.0624 366.75Z" fill="#1E2331"/>
<path d="M29.0624 328.038L39.2496 334.441V344.046L29.0624 350.45L18.8746 344.046V334.441L29.0624 328.038Z" fill="#1E2331"/>
<path d="M29.0624 405.463L39.2496 411.866V421.471L29.0624 427.875L18.8746 421.471V411.866L29.0624 405.463Z" fill="#1E2331"/>
<path d="M29.0624 444.175L39.2496 450.579V460.184L29.0624 466.588L18.8746 460.184V450.579L29.0624 444.175Z" fill="#1E2331"/>
<path d="M65.7374 389.163L75.9246 395.566V405.171L65.7374 411.575L55.5496 405.171V395.566L65.7374 389.163Z" fill="#1E2331"/>
<path d="M65.7374 427.875L75.9246 434.279V443.884L65.7374 450.288L55.5496 443.884V434.279L65.7374 427.875Z" fill="#1E2331"/>
<path d="M65.7374 466.588L75.9246 472.991V482.596L65.7374 489L55.5496 482.596V472.991L65.7374 466.588Z" fill="#1E2331"/>
<path d="M53.5124 252.65L63.6996 259.054V268.659L53.5124 275.063L43.3246 268.659V259.054L53.5124 252.65Z" fill="#1E2331"/>
<path d="M53.5124 291.363L63.6996 297.766V307.371L53.5124 313.775L43.3246 307.371V297.766L53.5124 291.363Z" fill="#1E2331"/>
<path d="M53.5124 330.075L63.6996 336.479V346.084L53.5124 352.488L43.3246 346.084V336.479L53.5124 330.075Z" fill="#1E2331"/>
<path d="M53.5124 368.788L63.6996 375.191V384.796L53.5124 391.2L43.3246 384.796V375.191L53.5124 368.788Z" fill="#1E2331"/>
<path d="M16.8374 385.088L27.0246 391.491V401.096L16.8374 407.5L6.64961 401.096V391.491L16.8374 385.088Z" fill="#1E2331"/>
<path d="M16.8374 346.375L27.0246 352.779V362.384L16.8374 368.788L6.64961 362.384V352.779L16.8374 346.375Z" fill="#1E2331"/>
<path d="M16.8374 423.8L27.0246 430.204V439.809L16.8374 446.213L6.64961 439.809V430.204L16.8374 423.8Z" fill="#1E2331"/>
<path d="M53.5124 407.5L63.6996 413.904V423.509L53.5124 429.913L43.3246 423.509V413.904L53.5124 407.5Z" fill="#1E2331"/>
<path d="M53.5124 446.213L63.6996 452.616V462.221L53.5124 468.625L43.3246 462.221V452.616L53.5124 446.213Z" fill="#1E2331"/>
<path d="M214.475 24.45L220.587 28.525V34.6375L214.475 38.7125L208.362 34.6375V28.525L214.475 24.45Z" fill="#1E2331"/>
<path d="M206.325 12.225L212.437 16.3V22.4125L206.325 26.4875L200.212 22.4125V16.3L206.325 12.225Z" fill="#1E2331"/>
<path d="M198.175 0L204.287 4.075V10.1875L198.175 14.2625L192.062 10.1875V4.075L198.175 0Z" fill="#1E2331"/>
<path d="M192.062 12.225L196.137 15.1357V19.5018L192.062 22.4125L187.987 19.5018V15.1357L192.062 12.225Z" fill="#1E2331"/>
<path d="M196.137 22.4125L200.212 25.3232V29.6893L196.137 32.6L192.062 29.6893V25.3232L196.137 22.4125Z" fill="#1E2331"/>
<path d="M132.975 436.025L137.05 438.936V443.302L132.975 446.213L128.9 443.302V438.936L132.975 436.025Z" fill="#1E2331"/>
<path d="M128.9 448.25L132.975 451.161V455.527L128.9 458.438L124.825 455.527V451.161L128.9 448.25Z" fill="#1E2331"/>
<path d="M118.712 456.4L122.787 459.311V463.677L118.712 466.588L114.637 463.677V459.311L118.712 456.4Z" fill="#1E2331"/>
<path d="M114.637 468.625L118.712 471.536V475.902L114.637 478.813L110.562 475.902V471.536L114.637 468.625Z" fill="#1E2331"/>
<path d="M238.925 110.025L243 112.936V117.302L238.925 120.213L234.85 117.302V112.936L238.925 110.025Z" fill="#1E2331"/>
<path d="M226.7 107.988L230.775 110.898V115.264L226.7 118.175L222.625 115.264V110.898L226.7 107.988Z" fill="#1E2331"/>
<path d="M221.606 36.675L228.737 41.3321V48.3179L221.606 52.975L214.475 48.3179V41.3321L221.606 36.675Z" fill="#1E2331"/>
<path d="M166.594 55.0125L173.725 59.6697V66.6554L166.594 71.3125L159.462 66.6554V59.6697L166.594 55.0125Z" fill="#1E2331"/>
<path d="M156.406 73.35L163.537 78.0071V84.9929L156.406 89.65L149.275 84.9929V78.0071L156.406 73.35Z" fill="#1E2331"/>
<path d="M142.144 91.6875L149.275 96.3447V103.33L142.144 107.988L135.012 103.33V96.3447L142.144 91.6875Z" fill="#1E2331"/>
<path d="M233.831 91.6875L240.962 96.3447V103.33L233.831 107.988L226.7 103.33V96.3447L233.831 91.6875Z" fill="#1E2331"/>
<path d="M209.381 132.438L216.512 137.095V144.08L209.381 148.738L202.25 144.08V137.095L209.381 132.438Z" fill="#1E2331"/>
<path d="M32.1186 215.975L39.2496 220.632V227.618L32.1186 232.275L24.9871 227.618V220.632L32.1186 215.975Z" fill="#1E2331"/>
<path d="M44.3436 275.063L51.4746 279.72V286.705L44.3436 291.363L37.2121 286.705V279.72L44.3436 275.063Z" fill="#1E2331"/>
<path d="M31.0998 291.363L39.2496 296.602V304.461L31.0998 309.7L22.9496 304.461V296.602L31.0998 291.363Z" fill="#1E2331"/>
<path d="M19.8936 311.738L27.0246 316.395V323.38L19.8936 328.038L12.7621 323.38V316.395L19.8936 311.738Z" fill="#1E2331"/>
<path d="M7.66856 368.788L14.7996 373.445V380.43L7.66856 385.088L0.537109 380.43V373.445L7.66856 368.788Z" fill="#1E2331"/>
<path d="M42.3061 464.55L49.4371 469.207V476.193L42.3061 480.85L35.1746 476.193V469.207L42.3061 464.55Z" fill="#1E2331"/>
<path d="M89.1685 468.625L96.2996 473.282V480.268L89.1685 484.925L82.0371 480.268V473.282L89.1685 468.625Z" fill="#1E2331"/>
<path d="M148.256 376.938L155.387 381.595V388.58L148.256 393.238L141.125 388.58V381.595L148.256 376.938Z" fill="#1E2331"/>
<path d="M56.5686 142.625L63.6996 147.282V154.268L56.5686 158.925L49.4371 154.268V147.282L56.5686 142.625Z" fill="#1E2331"/>
<path d="M127.881 110.025L135.012 114.682V121.668L127.881 126.325L120.75 121.668V114.682L127.881 110.025Z" fill="#1E2331"/>
<path d="M53.512 291.362L63.6992 297.766V307.371L53.512 313.775L43.3242 307.371V297.766L53.512 291.362Z" fill="#017B3B"/>
</svg>
